<?xml version="1.0" encoding="utf-8"?>
<!-- Generator: Adobe Illustrator 27.5.0, SVG Export Plug-In . SVG Version: 6.00 Build 0)  -->
<svg version="1.1" id="Layer_1" xmlns="http://www.w3.org/2000/svg" xmlns:xlink="http://www.w3.org/1999/xlink" x="0px" y="0px"
	 viewBox="0 0 4000 1884" style="enable-background:new 0 0 4000 1884;" xml:space="preserve">
<g>
	<rect x="0" y="0" style="fill:#66000000;" width="4000" height="1884"/>
	
		<radialGradient id="SVGID_1_" cx="1997.189" cy="1792.8118" r="900.5767" gradientTransform="matrix(1.8204 0 0 0.162 -1635.6827 1382.4288)" gradientUnits="userSpaceOnUse">
		<stop  offset="0" style="stop-color:#40ECFF"/>
		<stop  offset="0.206" style="stop-color:#34C0CF"/>
		<stop  offset="0.6711" style="stop-color:#165158"/>
		<stop  offset="1" style="stop-color:#000000"/>
	</radialGradient>
	<ellipse style="opacity:0.5;fill:url(#SVGID_1_);" cx="2000" cy="1672.864" rx="1639.659" ry="145.871"/>
	<g>
		<g>
			<path style="fill:#141326;" d="M3416.306,1105.598c-13.59,0.004-26.031-1.766-37.387-5.297
				c-54.133-16.82-74.387-68.074-92.258-113.297c-17.301-43.785-29.313-70.621-56.992-70.621
				c-52.094,0-78.484,37.945-106.426,78.121c-29.648,42.625-60.305,86.703-122.848,86.703c-58.359,0-88.016-6.254-116.695-12.305
				c-28.953-6.105-56.297-11.875-112.57-11.875c-59.984,0-90.301-17.422-119.617-34.27c-28.285-16.254-55-31.605-109.645-31.605
				c-61.957,0-92.613-36.336-122.262-71.477c-27.934-33.105-54.316-64.375-106.984-64.375c-52.297,0-78.68,35.398-106.609,72.871
				c-29.652,39.785-60.316,80.922-122.648,80.922c-54.816,0-81.586,14.266-109.926,29.371
				c-29.262,15.594-59.519,31.719-119.336,31.719c-57.066,0-86.078,1.422-114.137,2.797c-28.297,1.387-57.555,2.82-115.113,2.82
				c-63.176,0-93.77-54.664-123.355-107.531c-28-50.035-54.453-97.297-105.902-97.297c-51.406,0-77.859,48.016-105.867,98.852
				c-29.578,53.688-60.164,109.203-123.387,109.203c-64.473,0-85.012-76.082-104.875-149.656
				c-21.887-81.086-38.309-129.559-82.148-119.563c-36.715,8.414-40.809,32.035-46.481,64.727
				c-6.758,38.953-15.168,87.434-92.742,105.961c-26.516,6.332-51.688,25.133-80.836,46.898
				c-43.535,32.512-92.879,69.363-162.633,74.961c-79.754,6.391-170.57-30.188-277.637-111.867
				c-4.391-3.348-5.234-9.625-1.883-14.016c3.344-4.387,9.621-5.234,14.016-1.883c102.965,78.547,189.293,113.805,263.902,107.828
				c64.008-5.137,110.898-40.152,152.266-71.047c29.637-22.133,57.629-43.039,88.156-50.328
				c64.77-15.465,71.043-51.637,77.684-89.93c5.644-32.535,12.043-69.414,61.719-80.797c65.75-15.066,86.164,60.637,105.926,133.844
				c17.898,66.305,36.41,134.867,85.566,134.867c51.406,0,77.863-48.016,105.871-98.855
				c29.578-53.684,60.164-109.199,123.383-109.199c63.176,0,93.77,54.664,123.355,107.531c28,50.035,54.449,97.297,105.902,97.297
				c57.066,0,86.078-1.422,114.137-2.797c28.297-1.387,57.555-2.82,115.113-2.82c54.82,0,81.59-14.266,109.93-29.371
				c29.262-15.594,59.52-31.719,119.332-31.719c52.297,0,78.68-35.398,106.609-72.871c29.652-39.785,60.316-80.922,122.648-80.922
				c61.961,0,92.617,36.336,122.27,71.477c27.93,33.105,54.313,64.375,106.977,64.375c59.984,0,90.297,17.422,119.609,34.266
				c28.289,16.258,55.004,31.609,109.652,31.609c58.359,0,88.016,6.254,116.695,12.305c28.953,6.105,56.297,11.875,112.57,11.875
				c52.094,0,78.484-37.945,106.426-78.121c29.648-42.625,60.305-86.703,122.848-86.703c42.688,0,58.672,40.449,75.594,83.27
				c17.012,43.055,34.605,87.574,79.59,101.551c57.68,17.906,150.781-17.051,284.512-106.961c4.59-3.082,10.797-1.859,13.875,2.719
				c3.082,4.582,1.867,10.797-2.719,13.875C3566.177,1067.719,3479.138,1105.594,3416.306,1105.598z"/>
		</g>
		<g>
			
				<linearGradient id="SVGID_00000070102161383041389940000008553296565426120633_" gradientUnits="userSpaceOnUse" x1="315.0545" y1="951.7056" x2="3684.9448" y2="951.7056">
				<stop  offset="0" style="stop-color:#14162D"/>
				<stop  offset="0.3601" style="stop-color:#15192E"/>
				<stop  offset="0.5" style="stop-color:#161D30"/>
				<stop  offset="0.6679" style="stop-color:#19172E"/>
				<stop  offset="1" style="stop-color:#1A142D"/>
			</linearGradient>
			<path style="fill:url(#SVGID_00000070102161383041389940000008553296565426120633_);" d="M3420.462,1101.809
				c-12.734,0-24.496-1.527-35.324-4.566c-53.391-15-75.375-62.047-94.773-103.559c-19.035-40.738-32.129-65.707-60.238-65.707
				c-52.563,0-79.055,32.613-107.105,67.144c-29.766,36.641-60.547,74.531-122.625,74.531c-57.996,0-87.473-4.016-115.984-7.902
				c-29.129-3.969-56.645-7.719-113.281-7.719c-60.297,0-90.703-19.902-120.109-39.148c-28.191-18.449-54.82-35.879-109.152-35.879
				c-61.41,0-91.844-30.855-121.273-60.695c-28.223-28.613-54.883-55.641-109.676-56.703
				c-52.133-1.191-77.969,35.375-105.406,73.887c-29.164,40.945-59.324,83.285-121.633,83.285
				c-55.461,0-82.586,10.41-111.305,21.434c-29.152,11.191-59.301,22.762-118.473,22.762c-56.996,0-85.973,1.832-113.992,3.605
				c-28.332,1.793-57.629,3.645-115.258,3.645c-63.168,0-93.762-54.48-123.348-107.168c-28-49.859-54.449-96.957-105.91-96.957
				c-51.621,0-78.051,44.473-106.027,91.559c-29.605,49.824-60.223,101.344-123.227,101.344c-64.047,0-86.09-70.144-105.539-132.035
				c-22.336-71.082-39.078-113.535-83.492-103.871c-37.625,8.129-42.445,29.563-49.113,59.227
				c-7.926,35.258-17.789,79.133-94.383,96.66c-26.887,6.109-52.328,24.809-81.781,46.465
				c-43.195,31.754-92.148,67.742-160.805,73.316c-78.492,6.379-167.512-29.035-272.207-108.25
				c-4.402-3.332-5.273-9.602-1.941-14.008c3.336-4.398,9.594-5.273,14.012-1.938c100.602,76.117,185.176,110.234,258.519,104.262
				c62.996-5.117,109.523-39.32,150.574-69.496c29.957-22.023,58.25-42.824,89.184-49.848c64.293-14.715,71.59-47.18,79.316-81.551
				c6.699-29.793,14.289-63.563,64.383-74.383c65.488-14.301,86.469,52.684,106.812,117.418
				c19.074,60.699,37.094,118.031,86.461,118.031c51.625,0,78.051-44.473,106.031-91.563c29.605-49.82,60.219-101.34,123.223-101.34
				c63.168,0,93.762,54.48,123.348,107.168c28,49.859,54.449,96.957,105.91,96.957c56.996,0,85.973-1.832,113.992-3.605
				c28.332-1.793,57.629-3.645,115.258-3.645c55.465,0,82.59-10.41,111.309-21.434c29.152-11.191,59.301-22.762,118.469-22.762
				c52,0,77.91-36.375,105.344-74.887c28.832-40.477,58.629-82.309,119.469-82.309c0.863,0,1.738,0.008,2.617,0.024
				c62.926,1.223,93.734,32.457,123.523,62.66c27.766,28.148,53.992,54.738,107.035,54.738c60.297,0,90.699,19.902,120.105,39.145
				c28.191,18.453,54.82,35.883,109.156,35.883c57.996,0,87.473,4.016,115.984,7.902c29.129,3.969,56.645,7.719,113.281,7.719
				c52.559,0,79.051-32.613,107.102-67.141c29.766-36.645,60.547-74.535,122.629-74.535c42.266,0,59.797,37.519,78.359,77.242
				c18.438,39.453,37.5,80.25,82.063,92.769c57.918,16.27,149.129-17.684,278.863-103.781c4.602-3.047,10.805-1.801,13.863,2.801
				c3.055,4.602,1.801,10.809-2.801,13.863C3568.458,1065.207,3482.841,1101.805,3420.462,1101.809z"/>
		</g>
		<g>
			
				<linearGradient id="SVGID_00000060709802669463596200000001526478841429173924_" gradientUnits="userSpaceOnUse" x1="315.0562" y1="956.4788" x2="3684.9436" y2="956.4788">
				<stop  offset="0" style="stop-color:#151934"/>
				<stop  offset="0.2818" style="stop-color:#161C35"/>
				<stop  offset="0.451" style="stop-color:#172439"/>
				<stop  offset="0.5" style="stop-color:#18283B"/>
				<stop  offset="0.5889" style="stop-color:#1C1F38"/>
				<stop  offset="0.7432" style="stop-color:#1F1735"/>
				<stop  offset="1" style="stop-color:#201434"/>
			</linearGradient>
			<path style="fill:url(#SVGID_00000060709802669463596200000001526478841429173924_);" d="M3424.345,1098.07
				c-11.738,0-22.676-1.266-32.84-3.793c-52.793-13.117-76.5-56.066-97.414-93.961c-20.789-37.664-34.977-60.746-63.512-60.746
				c-53.102,0-79.734,27.32-107.93,56.242c-29.852,30.621-60.719,62.281-122.254,62.281c-57.625,0-86.918-1.805-115.246-3.547
				c-28.027-1.723-57.012-3.508-114.02-3.508c-60.594,0-91.074-22.383-120.551-44.031c-28.117-20.648-54.676-40.152-108.711-40.152
				c-60.914,0-91.105-25.438-120.301-50.035c-28.531-24.039-55.48-46.746-112.344-48.922
				c-51.629-1.914-77.223,35.363-104.164,74.906c-28.688,42.113-58.352,85.656-120.66,85.656c-56.152,0-83.691,6.5-112.852,13.383
				c-28.988,6.844-58.965,13.918-117.445,13.918c-56.926,0-85.867,2.242-113.852,4.41c-28.367,2.199-57.699,4.473-115.398,4.473
				c-63.156,0-93.754-54.293-123.34-106.801c-28-49.688-54.445-96.621-105.918-96.621c-51.863,0-78.266,40.945-106.223,84.297
				c-29.629,45.945-60.266,93.457-123.031,93.457c-63.52,0-86.152-60.742-106.117-114.336
				c-22.777-61.137-39.848-97.555-84.922-88.258c-38.609,7.844-44.152,27.09-51.824,53.734
				c-9.086,31.551-20.395,70.82-95.945,87.348c-27.27,5.875-54.219,25.375-82.746,46.019c-42.844,31-91.402,66.133-158.953,71.691
				c-77.176,6.34-164.453-27.879-266.777-104.637c-4.418-3.316-5.313-9.582-2-14c3.313-4.426,9.586-5.313,14-2
				c98.234,73.687,181.016,106.644,253.137,100.703c61.988-5.098,108.144-38.496,148.867-67.961
				c30.281-21.91,58.883-42.606,90.231-49.363c63.875-13.969,72.176-42.809,80.969-73.336c7.766-26.973,16.57-57.543,67.023-67.793
				c65.137-13.481,87.715,47.277,107.684,100.871c19.41,52.102,37.746,101.316,87.375,101.316c51.863,0,78.27-40.945,106.227-84.297
				c29.629-45.945,60.266-93.457,123.027-93.457c63.156,0,93.754,54.293,123.34,106.801c28,49.688,54.445,96.621,105.918,96.621
				c56.926,0,85.867-2.242,113.852-4.41c28.367-2.199,57.699-4.473,115.398-4.473c56.152,0,83.691-6.5,112.852-13.383
				c28.988-6.844,58.965-13.918,117.445-13.918c51.73,0,77.184-37.359,104.133-76.914c28.816-42.301,58.633-85.977,121.457-83.633
				c63.73,2.438,95.996,29.625,124.465,53.609c27.668,23.313,53.805,45.332,107.414,45.332c60.59,0,91.07,22.383,120.547,44.031
				c28.117,20.648,54.676,40.152,108.715,40.152c57.625,0,86.918,1.805,115.246,3.547c28.027,1.723,57.012,3.508,114.02,3.508
				c53.102,0,79.734-27.32,107.93-56.242c29.852-30.621,60.719-62.281,122.254-62.281c41.789,0,61.734,36.137,81.02,71.082
				c19.867,35.988,40.406,73.203,84.73,84.219c58.137,14.453,147.484-18.492,273.137-100.699c4.629-3.023,10.824-1.727,13.844,2.891
				c3.023,4.625,1.73,10.82-2.891,13.844C3570.638,1062.73,3486.349,1098.07,3424.345,1098.07z"/>
		</g>
		<g>
			
				<linearGradient id="SVGID_00000164502737814260448140000011904605018022126255_" gradientUnits="userSpaceOnUse" x1="315.056" y1="961.2885" x2="3684.9443" y2="961.2885">
				<stop  offset="0" style="stop-color:#151C3B"/>
				<stop  offset="0.2491" style="stop-color:#161F3C"/>
				<stop  offset="0.3987" style="stop-color:#172740"/>
				<stop  offset="0.5" style="stop-color:#1A3245"/>
				<stop  offset="0.5225" style="stop-color:#1C2E44"/>
				<stop  offset="0.6352" style="stop-color:#21203F"/>
				<stop  offset="0.7721" style="stop-color:#25183D"/>
				<stop  offset="1" style="stop-color:#26153C"/>
			</linearGradient>
			<path style="fill:url(#SVGID_00000164502737814260448140000011904605018022126255_);" d="M3428.052,1094.438
				c-7.875,0-15.391-0.559-22.578-1.668c-57.379-8.859-84.086-49.777-107.648-85.879c-20.32-31.133-36.371-55.727-66.793-55.727
				c-53.734,0-80.563,22.059-108.969,45.41c-29.875,24.566-60.766,49.965-121.668,49.965c-57.25,0-86.355,0.383-114.5,0.75
				c-28.211,0.371-57.383,0.754-114.766,0.754c-60.875,0-91.414-24.867-120.945-48.914c-28.059-22.844-54.559-44.422-108.316-44.422
				c-60.559,0-90.496-20.094-119.453-39.523c-27.586-18.516-56.113-37.656-114.883-40.988
				c-51.363-2.902-76.453,35.371-102.887,75.918c-26.906,41.262-57.406,88.031-119.73,88.031c-56.867,0-86.172,2.625-114.512,5.164
				c-28.777,2.578-58.535,5.242-116.301,5.242c-56.855,0-85.758,2.652-113.711,5.215c-28.402,2.605-57.77,5.301-115.539,5.301
				c-63.148,0-93.746-54.109-123.332-106.438c-28-49.512-54.445-96.281-105.926-96.281c-52.125,0-78.516,37.434-106.453,77.063
				c-29.645,42.055-60.301,85.539-122.801,85.539c-62.863,0-86.07-51.234-106.547-96.438c-23.129-51.059-39.688-81.895-86.527-72.84
				c-39.59,7.645-46.195,25.633-54.559,48.41c-10.227,27.844-22.953,62.5-97.477,77.867c-27.57,5.684-54.762,25.055-83.547,45.563
				c-85.762,61.098-192.5,137.152-418.594-30.949c-4.434-3.293-5.355-9.559-2.059-13.988c3.289-4.434,9.555-5.363,13.988-2.059
				c95.938,71.32,177.051,103.102,247.875,97.203c60.996-5.094,106.785-37.715,147.184-66.492
				c30.555-21.77,59.414-42.328,91.113-48.863c63.625-13.121,72.91-38.406,82.742-65.176c8.84-24.078,18.863-51.367,69.543-61.156
				c64.723-12.445,87.996,38.891,108.535,84.227c19.727,43.555,38.363,84.691,88.328,84.691c52.129,0,78.52-37.434,106.457-77.063
				c29.645-42.055,60.301-85.539,122.797-85.539c63.148,0,93.746,54.109,123.332,106.438c28,49.512,54.445,96.281,105.926,96.281
				c56.855,0,85.758-2.652,113.711-5.215c28.402-2.605,57.77-5.301,115.539-5.301c56.871,0,86.176-2.625,114.516-5.164
				c28.777-2.578,58.535-5.242,116.297-5.242c51.492,0,76.5-38.351,102.977-78.957c28.383-43.523,57.707-88.57,120.773-84.961
				c64.234,3.641,96.461,25.269,124.895,44.348c28.891,19.391,53.84,36.133,108.309,36.133c60.871,0,91.41,24.867,120.941,48.914
				c28.059,22.844,54.559,44.422,108.32,44.422c57.25,0,86.355-0.383,114.5-0.75c28.211-0.371,57.383-0.754,114.766-0.754
				c53.734,0,80.563-22.059,108.969-45.41c29.875-24.566,60.766-49.965,121.668-49.965c41.25,0,62.75,32.941,83.543,64.797
				c44.535,68.246,95.016,145.602,354.953-21.828c4.629-2.988,10.828-1.656,13.82,2.992c2.992,4.641,1.652,10.828-2.992,13.82
				C3572.568,1060.379,3489.654,1094.434,3428.052,1094.438z"/>
		</g>
		<g>
			
				<linearGradient id="SVGID_00000101094989666797156920000015372244277241882044_" gradientUnits="userSpaceOnUse" x1="315.0559" y1="961.2286" x2="3684.9438" y2="961.2286">
				<stop  offset="0" style="stop-color:#161F43"/>
				<stop  offset="0.2279" style="stop-color:#172244"/>
				<stop  offset="0.3648" style="stop-color:#182A48"/>
				<stop  offset="0.4775" style="stop-color:#1B384D"/>
				<stop  offset="0.5" style="stop-color:#1C3C4F"/>
				<stop  offset="0.5659" style="stop-color:#222E4B"/>
				<stop  offset="0.6683" style="stop-color:#282046"/>
				<stop  offset="0.7928" style="stop-color:#2B1844"/>
				<stop  offset="1" style="stop-color:#2C1543"/>
			</linearGradient>
			<path style="fill:url(#SVGID_00000101094989666797156920000015372244277241882044_);" d="M3430.732,1090.984
				c-69.105,0.008-101.063-41.27-129.188-77.586c-21.047-27.172-39.223-50.641-70.055-50.641
				c-54.473,0-81.578,16.813-110.277,34.613c-29.816,18.492-60.648,37.613-120.816,37.613c-56.879,0-85.793,2.539-113.758,4.996
				c-28.395,2.492-57.754,5.07-115.508,5.07c-61.137,0-91.719-27.348-121.297-53.793c-28.012-25.043-54.469-48.699-107.965-48.699
				c-60.582,0-88.988-14.195-119.059-29.227c-27.891-13.938-56.727-28.351-116.961-32.844
				c-51.176-3.816-74.539,33.602-101.594,76.926c-26.465,42.379-56.465,90.414-118.824,90.414c-57.594,0-87.395-1.656-116.219-3.258
				c-28.547-1.59-58.07-3.23-115.109-3.23c-56.785,0-85.652,3.059-113.57,6.016c-28.438,3.016-57.84,6.129-115.68,6.129
				c-63.137,0-93.734-53.922-123.328-106.07c-27.996-49.34-54.438-95.941-105.93-95.941c-52.418,0-78.801,33.934-106.73,69.859
				c-29.652,38.149-60.316,77.59-122.523,77.59c-61.992,0-85.77-41.672-106.75-78.438c-21.246-37.246-38.055-66.672-88.336-57.527
				c-40.734,7.387-48.137,23.117-57.508,43.031c-11.938,25.371-25.469,54.129-98.805,68.445
				c-27.953,5.453-55.426,24.715-84.512,45.106c-84.906,59.527-190.586,133.609-411.305-28.949
				c-4.445-3.273-5.398-9.535-2.121-13.981c3.27-4.445,9.531-5.402,13.98-2.121c209.148,154.023,304.148,87.43,387.965,28.676
				c30.875-21.645,60.039-42.09,92.16-48.363c63.387-12.371,73.664-34.207,84.543-57.328c10.402-22.106,21.16-44.969,72.031-54.195
				c64.231-11.656,88.164,30.293,109.277,67.293c20.059,35.152,39,68.352,89.379,68.352c52.422,0,78.805-33.934,106.734-69.863
				c29.652-38.144,60.316-77.586,122.52-77.586c63.137,0,93.734,53.922,123.328,106.07c27.996,49.34,54.438,95.941,105.93,95.941
				c56.785,0,85.652-3.059,113.57-6.016c28.438-3.016,57.84-6.129,115.68-6.129c57.594,0,87.398,1.656,116.223,3.258
				c28.547,1.59,58.07,3.23,115.105,3.23c51.27,0,75.844-39.348,101.859-81.008c27.938-44.734,56.859-90.992,120.043-86.277
				c64.164,4.785,96.176,20.781,124.418,34.898c29.113,14.551,54.254,27.117,110.117,27.117c61.133,0,91.719,27.344,121.293,53.789
				c28.012,25.047,54.469,48.703,107.969,48.703c56.879,0,85.793-2.539,113.758-4.996c28.395-2.492,57.754-5.07,115.508-5.07
				c54.469,0,81.574-16.813,110.273-34.609c29.816-18.496,60.648-37.617,120.82-37.617c40.637,0,63.629,29.684,85.863,58.395
				c47.738,61.633,101.832,131.496,352.238-27.063c4.668-2.961,10.848-1.563,13.801,3.098c2.953,4.668,1.566,10.848-3.098,13.801
				C3563.029,1065.238,3485.298,1090.98,3430.732,1090.984z"/>
		</g>
		<g>
			
				<linearGradient id="SVGID_00000091710945190402468710000006394000234791224213_" gradientUnits="userSpaceOnUse" x1="315.0564" y1="956.9512" x2="3684.9456" y2="956.9512">
				<stop  offset="0" style="stop-color:#16224A"/>
				<stop  offset="0.2107" style="stop-color:#17254B"/>
				<stop  offset="0.3374" style="stop-color:#182D4F"/>
				<stop  offset="0.4416" style="stop-color:#1B3B55"/>
				<stop  offset="0.5" style="stop-color:#1E475A"/>
				<stop  offset="0.5124" style="stop-color:#1F4359"/>
				<stop  offset="0.5963" style="stop-color:#282F52"/>
				<stop  offset="0.6918" style="stop-color:#2E214E"/>
				<stop  offset="0.8075" style="stop-color:#31194B"/>
				<stop  offset="1" style="stop-color:#32164A"/>
			</linearGradient>
			<path style="fill:url(#SVGID_00000091710945190402468710000006394000234791224213_);" d="M3433.466,1087.305
				c-65.863,0.008-99.008-35.852-128.262-67.477c-22.57-24.402-42.063-45.477-73.262-45.477c-55.309,0-82.801,11.539-111.906,23.758
				c-29.648,12.445-60.309,25.316-119.641,25.316c-56.508,0-83.965,4.461-113.027,9.184c-28.57,4.645-58.113,9.445-116.238,9.445
				c-61.383,0-92-29.82-121.609-58.66c-27.977-27.246-54.402-52.984-107.652-52.984c-61.875,0-89.02-8.945-120.449-19.301
				c-26.734-8.805-57.031-18.789-117.254-24.336c-50.813-4.684-73.746,33.609-100.277,77.941
				c-26.027,43.496-55.527,92.797-117.938,92.797c-58.301,0-88.59-6.043-117.879-11.883c-29.641-5.914-57.641-11.5-113.969-11.5
				c-56.715,0-85.547,3.465-113.434,6.816c-28.469,3.422-57.906,6.961-115.816,6.961c-63.129,0-93.727-53.738-123.32-105.707
				c-27.992-49.164-54.438-95.602-105.938-95.602c-52.746,0-79.133,30.453-107.066,62.695
				c-29.648,34.219-60.305,69.601-122.188,69.601c-60.805,0-85.09-31.988-106.516-60.215
				c-21.719-28.609-38.875-51.223-90.586-42.438c-41.996,7.129-50.234,20.625-60.664,37.711
				c-13.07,21.418-27.887,45.688-99.922,58.961c-28.348,5.219-56.113,24.371-85.516,44.644
				c-84.027,57.965-188.617,130.09-403.973-26.941c-4.465-3.254-5.441-9.508-2.188-13.969c3.25-4.469,9.504-5.449,13.969-2.188
				c203.898,148.672,297.895,83.836,380.84,26.637c31.211-21.527,60.691-41.859,93.242-47.856
				c63.246-11.648,75.055-30.996,86.477-49.707c11.508-18.859,23.41-38.359,74.387-47.012
				c63.66-10.789,87.148,20.141,109.863,50.063c20.422,26.902,39.707,52.308,90.586,52.308c52.746,0,79.137-30.453,107.07-62.699
				c29.648-34.215,60.305-69.598,122.184-69.598c63.129,0,93.727,53.738,123.32,105.707c27.992,49.164,54.438,95.602,105.938,95.602
				c56.715,0,85.547-3.465,113.43-6.816c28.473-3.422,57.91-6.961,115.82-6.961c58.305,0,88.594,6.043,117.883,11.883
				c29.641,5.914,57.641,11.5,113.965,11.5c51.07,0,75.215-40.348,100.777-83.066c27.484-45.934,55.957-93.387,119.273-87.586
				c62.484,5.754,93.93,16.113,121.676,25.258c29.797,9.816,55.527,18.293,114.191,18.293c61.379,0,91.996,29.82,121.605,58.656
				c27.977,27.25,54.402,52.988,107.656,52.988c56.508,0,83.965-4.461,113.027-9.184c28.57-4.644,58.113-9.445,116.238-9.445
				c55.305,0,82.797-11.539,111.902-23.758c29.648-12.445,60.309-25.316,119.645-25.316c39.945,0,64.348,26.383,87.945,51.898
				c50.965,55.102,108.738,117.563,349.777-32.203c4.676-2.922,10.855-1.48,13.773,3.215c2.914,4.691,1.473,10.855-3.219,13.773
				C3564.767,1062.766,3487.927,1087.301,3433.466,1087.305z"/>
		</g>
		<g>
			
				<linearGradient id="SVGID_00000083090586777848862770000003525918975503942800_" gradientUnits="userSpaceOnUse" x1="315.0553" y1="952.754" x2="3684.9441" y2="952.754">
				<stop  offset="0" style="stop-color:#162551"/>
				<stop  offset="0.1993" style="stop-color:#172852"/>
				<stop  offset="0.3191" style="stop-color:#193056"/>
				<stop  offset="0.4176" style="stop-color:#1C3E5C"/>
				<stop  offset="0.5" style="stop-color:#215164"/>
				<stop  offset="0.5407" style="stop-color:#264360"/>
				<stop  offset="0.6197" style="stop-color:#2E2F59"/>
				<stop  offset="0.7096" style="stop-color:#342155"/>
				<stop  offset="0.8187" style="stop-color:#371952"/>
				<stop  offset="1" style="stop-color:#381651"/>
			</linearGradient>
			<path style="fill:url(#SVGID_00000083090586777848862770000003525918975503942800_);" d="M3435.427,1083.785
				c-62.441,0.004-96.523-30.57-126.68-57.613c-24.07-21.582-44.855-40.223-76.352-40.223c-56.227,0-84.215,6.18-113.844,12.727
				c-29.371,6.488-59.746,13.195-118.156,13.195c-56.148,0-83.434,6.473-112.324,13.324c-28.738,6.816-58.457,13.867-116.941,13.867
				c-61.613,0-92.254-32.289-121.887-63.516c-27.953-29.457-54.355-57.281-107.375-57.281c-71,0-96.133-4.203-134.172-10.57
				c-24.129-4.035-54.16-9.059-105.207-14.633c-50.48-5.547-72.945,33.629-98.949,78.949
				c-25.594,44.617-54.602,95.184-117.074,95.184c-58.977,0-89.703-10.512-119.418-20.676
				c-29.461-10.082-57.293-19.602-112.945-19.602c-56.645,0-85.441,3.871-113.293,7.617c-28.504,3.832-57.977,7.793-115.957,7.793
				c-63.117,0-93.719-53.551-123.313-105.34c-27.992-48.992-54.434-95.266-105.945-95.266c-53.105,0-79.516,26.992-107.477,55.566
				c-29.625,30.273-60.258,61.578-121.777,61.578c-59.082,0-83.699-22.18-105.422-41.746
				c-22.383-20.164-40.066-36.082-93.695-27.598c-43.398,6.867-53,18.719-64.117,32.441c-14.129,17.438-30.141,37.203-100.746,49.43
				c-28.758,4.977-56.828,24.02-86.547,44.18c-83.148,56.398-186.629,126.586-396.609-24.926c-4.48-3.23-5.488-9.48-2.258-13.961
				c3.23-4.477,9.488-5.492,13.961-2.258c198.637,143.328,291.637,80.246,373.676,24.594c31.555-21.406,61.359-41.625,94.363-47.336
				c63.207-10.945,76.125-26.891,88.621-42.313c12.558-15.504,25.547-31.535,76.531-39.609
				c63.055-9.969,87.023,11.617,110.207,32.496c20.895,18.824,40.633,36.605,92.035,36.605c53.109,0,79.52-26.992,107.48-55.566
				c29.625-30.273,60.254-61.578,121.773-61.578c63.117,0,93.719,53.551,123.313,105.34c27.992,48.992,54.434,95.266,105.945,95.266
				c56.645,0,85.441-3.871,113.293-7.617c28.504-3.832,57.977-7.793,115.957-7.793c58.98,0,89.707,10.512,119.422,20.676
				c29.461,10.082,57.289,19.602,112.941,19.602c50.891,0,74.613-41.352,99.727-85.133c27.023-47.106,54.961-95.797,118.469-88.883
				c51.613,5.637,81.957,10.711,106.336,14.789c38.371,6.422,61.531,10.297,130.871,10.297c61.609,0,92.25,32.289,121.883,63.516
				c27.953,29.457,54.359,57.281,107.379,57.281c56.148,0,83.434-6.473,112.324-13.324c28.738-6.82,58.457-13.867,116.941-13.867
				c56.227,0,84.215-6.18,113.844-12.727c29.375-6.488,59.746-13.195,118.156-13.195c39.148,0,64.848,23.047,89.703,45.332
				c54.258,48.652,115.758,103.801,347.645-37.285c4.719-2.867,10.875-1.375,13.742,3.344c2.871,4.719,1.371,10.871-3.344,13.742
				C3566.119,1060.453,3489.955,1083.781,3435.427,1083.785z"/>
		</g>
		<g>
			
				<linearGradient id="SVGID_00000044894653657739301580000011216442320482121394_" gradientUnits="userSpaceOnUse" x1="315.0553" y1="948.6563" x2="3684.9446" y2="948.6563">
				<stop  offset="0" style="stop-color:#172858"/>
				<stop  offset="0.19" style="stop-color:#182B59"/>
				<stop  offset="0.3043" style="stop-color:#1A335D"/>
				<stop  offset="0.3985" style="stop-color:#1D4163"/>
				<stop  offset="0.4814" style="stop-color:#22556C"/>
				<stop  offset="0.5" style="stop-color:#235B6E"/>
				<stop  offset="0.5612" style="stop-color:#2C4467"/>
				<stop  offset="0.6367" style="stop-color:#343061"/>
				<stop  offset="0.7226" style="stop-color:#3A225C"/>
				<stop  offset="0.8268" style="stop-color:#3D1A5A"/>
				<stop  offset="1" style="stop-color:#3E1759"/>
			</linearGradient>
			<path style="fill:url(#SVGID_00000044894653657739301580000011216442320482121394_);" d="M3436.376,1080.465
				c-58.816,0.008-93.504-25.457-124.316-48.059c-25.5-18.707-47.527-34.863-79.211-34.863c-57.199,0-87.09,0.703-115.992,1.383
				c-29.02,0.684-59.023,1.391-116.461,1.391c-55.793,0-82.93,8.461-111.656,17.422c-28.895,9.012-58.77,18.328-117.609,18.328
				c-61.832,0-92.484-34.754-122.133-68.359c-27.938-31.672-54.328-61.59-107.129-61.59c-36.375,0-60.555,1.066-79.984,1.926
				c-42.465,1.871-68.102,3.008-161.066-8.695c-50.137-6.336-72.145,33.668-97.613,79.965c-25.16,45.73-53.68,97.566-116.223,97.566
				c-59.606,0-90.711-15.039-120.789-29.582c-29.348-14.188-57.063-27.59-112.09-27.59c-56.574,0-84.059,4.086-113.156,8.41
				c-28.535,4.242-58.043,8.629-116.094,8.629c-63.109,0-93.711-53.367-123.305-104.977
				c-27.992-48.813-54.434-94.922-105.953-94.922c-53.508,0-79.965,23.543-107.977,48.465
				c-29.574,26.316-60.156,53.527-121.277,53.527c-56.242,0-80.801-12.344-102.469-23.238
				c-22.551-11.332-42.008-21.121-98.664-12.797c-44.961,6.606-55.625,16.133-67.973,27.164
				c-15.074,13.465-32.156,28.723-101.172,39.906c-29.18,4.727-57.566,23.664-87.617,43.711
				c-82.238,54.855-184.578,123.121-389.199-22.906c-4.496-3.207-5.539-9.453-2.332-13.949c3.211-4.496,9.457-5.539,13.949-2.332
				c193.387,138.012,285.348,76.668,366.48,22.547c31.91-21.285,62.051-41.391,95.523-46.813
				c63.242-10.25,77.375-22.871,91.043-35.082c13.516-12.07,27.488-24.555,78.391-32.035c62.902-9.234,86.043,2.395,110.551,14.719
				c20.645,10.375,41.988,21.106,93.488,21.106c53.512,0,79.969-23.543,107.98-48.469c29.574-26.313,60.156-53.523,121.273-53.523
				c63.109,0,93.711,53.367,123.305,104.977c27.992,48.813,54.434,94.922,105.953,94.922c56.574,0,84.059-4.086,113.156-8.41
				c28.535-4.242,58.043-8.629,116.094-8.629c59.605,0,90.715,15.039,120.793,29.582c29.348,14.188,57.063,27.59,112.086,27.59
				c50.723,0,74.027-42.359,98.703-87.211c26.551-48.266,54.043-98.188,117.633-90.164c91.293,11.496,114.875,10.457,157.684,8.559
				c19.625-0.867,44.051-1.945,80.867-1.945c61.828,0,92.48,34.75,122.129,68.359c27.938,31.672,54.328,61.59,107.133,61.59
				c55.793,0,82.93-8.461,111.656-17.422c28.895-9.012,58.77-18.328,117.609-18.328c57.199,0,87.09-0.703,115.992-1.383
				c29.02-0.684,59.023-1.391,116.461-1.391c38.234,0,63.887,18.816,91.043,38.738c57.625,42.273,122.941,90.18,345.941-42.34
				c4.742-2.813,10.879-1.258,13.707,3.488c2.82,4.75,1.258,10.883-3.488,13.707
				C3566.982,1058.328,3491.197,1080.461,3436.376,1080.465z"/>
		</g>
		<g>
			
				<linearGradient id="SVGID_00000073694633474036527830000000799424524348844446_" gradientUnits="userSpaceOnUse" x1="315.0549" y1="949.2676" x2="3684.9451" y2="949.2676">
				<stop  offset="0" style="stop-color:#172B5F"/>
				<stop  offset="0.1813" style="stop-color:#182E60"/>
				<stop  offset="0.2904" style="stop-color:#1A3664"/>
				<stop  offset="0.3803" style="stop-color:#1D446A"/>
				<stop  offset="0.4593" style="stop-color:#225873"/>
				<stop  offset="0.5" style="stop-color:#256679"/>
				<stop  offset="0.5159" style="stop-color:#285E77"/>
				<stop  offset="0.5814" style="stop-color:#32446E"/>
				<stop  offset="0.6538" style="stop-color:#3A3068"/>
				<stop  offset="0.7357" style="stop-color:#402263"/>
				<stop  offset="0.8349" style="stop-color:#431A61"/>
				<stop  offset="1" style="stop-color:#441760"/>
			</linearGradient>
			<path style="fill:url(#SVGID_00000073694633474036527830000000799424524348844446_);" d="M2087.501,1086.563
				c-60.176,0-91.602-19.598-121.988-38.547c-29.289-18.266-56.957-35.52-111.41-35.52c-56.504,0-83.953,4.473-113.016,9.207
				c-28.57,4.652-58.113,9.465-116.234,9.465c-63.098,0-93.699-53.18-123.297-104.609c-27.992-48.641-54.43-94.586-105.961-94.586
				c-53.953,0-80.488,20.105-108.586,41.391c-29.496,22.344-59.992,45.449-120.668,45.449c-47.918,0-72.387-3.137-92.047-5.652
				c-27.742-3.563-46.074-5.906-111.098,2.922c-46.715,6.34-58.586,13.484-72.336,21.758
				c-15.871,9.551-33.863,20.371-101.086,30.512c-29.629,4.469-58.336,23.301-88.734,43.234
				c-81.297,53.316-182.481,119.68-381.75-20.875c-4.512-3.184-5.59-9.422-2.406-13.938c3.188-4.512,9.422-5.582,13.938-2.406
				c188.145,132.715,279.051,73.094,359.254,20.492c32.273-21.168,62.762-41.16,96.715-46.281
				c63.301-9.551,78.785-18.867,93.758-27.875c14.996-9.023,29.16-17.543,79.961-24.441c67.629-9.184,88.051-6.566,116.328-2.941
				c19.094,2.445,42.863,5.492,89.504,5.492c53.953,0,80.492-20.106,108.59-41.391c29.496-22.344,59.992-45.449,120.664-45.449
				c63.098,0,93.699,53.18,123.297,104.609c27.992,48.641,54.43,94.586,105.961,94.586c56.504,0,83.953-4.473,113.016-9.207
				c28.57-4.652,58.113-9.465,116.234-9.465c60.18,0,91.605,19.598,121.992,38.547c29.289,18.266,56.953,35.52,111.406,35.52
				c50.566,0,73.461-43.371,97.695-89.293c26.086-49.414,53.027-100.48,116.773-91.445c79.59,11.328,108.133,5.426,141.172-1.41
				c23.66-4.895,50.477-10.445,98.727-10.445c62.031,0,92.691,37.207,122.348,73.191c27.93,33.898,54.316,65.914,106.914,65.914
				c55.449,0,82.445-10.438,111.027-21.484c29.035-11.227,59.055-22.832,118.238-22.832c58.172,0,88.664,5.254,118.152,10.336
				c29.977,5.164,58.293,10.043,114.758,10.043c37.148,0,63.699,15.621,91.813,32.16c61.105,35.953,130.367,76.699,344.816-47.414
				c4.766-2.75,10.895-1.137,13.664,3.648c2.766,4.777,1.133,10.894-3.648,13.664c-224.555,129.965-299.156,86.059-364.977,47.34
				c-26.809-15.773-49.965-29.398-81.668-29.398c-58.176,0-88.668-5.254-118.156-10.336c-29.977-5.164-58.293-10.043-114.754-10.043
				c-55.449,0-82.445,10.438-111.027,21.484c-29.035,11.227-59.055,22.832-118.238,22.832c-62.035,0-92.695-37.211-122.352-73.195
				c-27.93-33.895-54.313-65.91-106.91-65.91c-46.203,0-70.844,5.098-94.676,10.031c-34.867,7.215-64.988,13.449-148.043,1.629
				c-49.73-7.102-71.324,33.719-96.266,80.977C2178.158,1033.457,2150.126,1086.563,2087.501,1086.563z"/>
		</g>
		<g>
			
				<linearGradient id="SVGID_00000145026754230858272040000009991000226157339041_" gradientUnits="userSpaceOnUse" x1="315.0558" y1="951.6699" x2="3684.9436" y2="951.6699">
				<stop  offset="0" style="stop-color:#172E66"/>
				<stop  offset="0.1749" style="stop-color:#183167"/>
				<stop  offset="0.2801" style="stop-color:#1A396B"/>
				<stop  offset="0.3668" style="stop-color:#1D4771"/>
				<stop  offset="0.4431" style="stop-color:#225B7A"/>
				<stop  offset="0.5" style="stop-color:#277083"/>
				<stop  offset="0.5325" style="stop-color:#2E5F7E"/>
				<stop  offset="0.5957" style="stop-color:#384575"/>
				<stop  offset="0.6656" style="stop-color:#40316F"/>
				<stop  offset="0.7447" style="stop-color:#46236A"/>
				<stop  offset="0.8406" style="stop-color:#491B68"/>
				<stop  offset="1" style="stop-color:#4A1867"/>
			</linearGradient>
			<path style="fill:url(#SVGID_00000145026754230858272040000009991000226157339041_);" d="M2088.017,1096.246
				c-60.691,0-92.379-24.16-123.02-47.527c-29.289-22.336-56.957-43.434-110.895-43.434c-56.434,0-83.852,4.855-112.879,10
				c-28.605,5.066-58.18,10.305-116.371,10.305c-63.086,0-93.691-52.996-123.289-104.246c-27.988-48.469-54.426-94.25-105.969-94.25
				c-54.441,0-81.098,16.672-109.32,34.324c-29.375,18.371-59.75,37.367-119.934,37.367c-65.105,0-84.926,5.301-112.363,12.641
				c-19.859,5.313-44.574,11.926-92.789,17.934c-48.84,6.09-62.066,10.711-77.383,16.059c-16.555,5.781-35.316,12.336-100.328,21.41
				c-30.09,4.203-59.133,22.926-89.879,42.75c-80.356,51.801-180.352,116.27-374.258-18.836c-4.531-3.156-5.648-9.387-2.488-13.922
				c3.156-4.527,9.395-5.641,13.918-2.484c182.922,127.434,272.742,69.523,351.988,18.433
				c32.652-21.051,63.496-40.938,97.953-45.746c63.055-8.805,80.82-15.012,96.496-20.488c15.715-5.484,30.555-10.668,81.504-17.02
				c46.852-5.84,69.828-11.988,90.098-17.41c27.824-7.441,49.797-13.32,117.531-13.32c54.445,0,81.102-16.672,109.328-34.324
				c29.371-18.371,59.742-37.367,119.926-37.367c63.086,0,93.691,52.996,123.289,104.246c27.988,48.469,54.426,94.25,105.969,94.25
				c56.434,0,83.852-4.856,112.883-10c28.602-5.066,58.176-10.305,116.367-10.305c60.695,0,92.379,24.164,123.023,47.527
				c29.289,22.336,56.953,43.434,110.891,43.434c50.426,0,72.906-44.387,96.707-91.379c25.598-50.547,52.102-102.824,115.891-92.715
				c77.785,12.328,105.754,1.699,138.125-10.602c24.336-9.25,51.918-19.73,103.129-19.73c62.223,0,92.887,39.66,122.539,78.012
				c27.934,36.125,54.313,70.246,106.723,70.246c55.121,0,81.992-12.395,110.445-25.52c29.156-13.449,59.309-27.355,118.82-27.355
				c59.094,0,90.121,11.375,120.125,22.375c29.668,10.879,57.695,21.152,113.238,21.152c35.836,0,63.016,12.461,91.789,25.656
				c64.75,29.691,138.137,63.344,344.496-52.566c4.816-2.707,10.91-0.996,13.617,3.82c2.703,4.816,0.992,10.914-3.82,13.617
				c-215.254,120.895-293.555,84.98-362.629,53.309c-26.734-12.258-51.984-23.836-83.453-23.836
				c-59.094,0-90.121-11.375-120.125-22.375c-29.668-10.879-57.695-21.152-113.238-21.152c-55.121,0-81.992,12.395-110.445,25.52
				c-29.156,13.449-59.309,27.355-118.82,27.355c-62.227,0-92.891-39.66-122.543-78.012
				c-27.934-36.125-54.313-70.246-106.719-70.246c-47.539,0-72.188,9.367-96.023,18.426c-33.582,12.762-65.309,24.816-148.355,11.66
				c-49.438-7.82-70.512,33.801-94.922,81.996C2178.271,1041.875,2150.732,1096.246,2088.017,1096.246z"/>
		</g>
		<g>
			
				<linearGradient id="SVGID_00000009579184817988482350000013271821222506746556_" gradientUnits="userSpaceOnUse" x1="315.0558" y1="954.0743" x2="3684.9443" y2="954.0743">
				<stop  offset="0" style="stop-color:#18316D"/>
				<stop  offset="0.1693" style="stop-color:#19346E"/>
				<stop  offset="0.2711" style="stop-color:#1B3C72"/>
				<stop  offset="0.3551" style="stop-color:#1E4A78"/>
				<stop  offset="0.4289" style="stop-color:#235E81"/>
				<stop  offset="0.4961" style="stop-color:#29788C"/>
				<stop  offset="0.5" style="stop-color:#297A8D"/>
				<stop  offset="0.5483" style="stop-color:#345F85"/>
				<stop  offset="0.6095" style="stop-color:#3E457C"/>
				<stop  offset="0.677" style="stop-color:#463176"/>
				<stop  offset="0.7534" style="stop-color:#4C2371"/>
				<stop  offset="0.846" style="stop-color:#4F1B6F"/>
				<stop  offset="1" style="stop-color:#50186E"/>
			</linearGradient>
			<path style="fill:url(#SVGID_00000009579184817988482350000013271821222506746556_);" d="M2088.537,1105.93
				c-61.156,0-93.055-28.719-123.906-56.496c-29.34-26.41-57.051-51.359-110.527-51.359c-56.363,0-83.75,5.238-112.746,10.789
				c-28.633,5.481-58.242,11.145-116.504,11.145c-63.078,0-93.684-52.809-123.281-103.879
				c-27.988-48.293-54.426-93.91-105.977-93.91c-54.98,0-81.805,13.23-110.203,27.238c-29.203,14.406-59.402,29.301-119.051,29.301
				c-57.605,0-78.789,12.988-103.32,28.031c-22.563,13.836-48.137,29.516-103.848,35.852c-68.16,7.746-71.969,8.25-101.605,12.184
				c-15.492,2.055-38.016,5.043-80.383,10.48c-30.574,3.926-59.965,22.547-91.082,42.262
				c-79.371,50.297-178.148,112.883-366.715-16.789c-4.551-3.129-5.699-9.356-2.57-13.906c3.129-4.547,9.348-5.703,13.906-2.57
				c177.668,122.18,266.398,65.977,344.676,16.371c33.047-20.938,64.258-40.715,99.238-45.203
				c42.324-5.434,64.824-8.418,80.301-10.473c29.801-3.953,33.629-4.461,101.977-12.23c51.301-5.832,73.848-19.656,95.652-33.027
				c25.984-15.93,50.527-30.98,113.773-30.98c54.984,0,81.809-13.23,110.207-27.238c29.203-14.406,59.402-29.301,119.047-29.301
				c63.078,0,93.684,52.809,123.281,103.879c27.988,48.297,54.426,93.91,105.977,93.91c56.363,0,83.75-5.242,112.746-10.789
				c28.633-5.481,58.242-11.145,116.504-11.145c61.156,0,93.055,28.719,123.906,56.496c29.34,26.414,57.051,51.359,110.527,51.359
				c50.293,0,72.367-45.402,95.734-93.473c25.117-51.672,51.129-105.133,114.988-93.973c77.672,13.527,106.66-2.59,137.367-19.644
				c25.813-14.34,52.504-29.168,105.242-29.168c62.402,0,93.063,42.102,122.711,82.82c27.938,38.359,54.324,74.594,106.551,74.594
				c54.805,0,81.57-14.344,109.91-29.531c29.266-15.688,59.527-31.906,119.355-31.906c59.926,0,91.375,17.594,121.789,34.609
				c29.477,16.492,57.316,32.066,112.027,32.066c34.168,0,61.57,9.375,90.578,19.305c68.629,23.484,146.418,50.102,345.383-57.879
				c4.844-2.644,10.918-0.84,13.559,4.019c2.633,4.856,0.836,10.926-4.02,13.559c-206.668,112.164-288.871,84.039-361.398,59.223
				c-27.391-9.375-53.262-18.227-84.102-18.227c-59.926,0-91.375-17.594-121.789-34.609
				c-29.477-16.492-57.316-32.066-112.027-32.066c-54.805,0-81.57,14.344-109.91,29.531
				c-29.266,15.688-59.527,31.906-119.355,31.906c-62.406,0-93.066-42.106-122.719-82.82
				c-27.934-38.359-54.316-74.594-106.543-74.594c-47.555,0-70.859,12.945-95.531,26.648
				c-32.391,17.996-65.887,36.621-150.508,21.867c-49.039-8.516-69.688,33.887-93.57,83.012
				C2178.392,1050.289,2151.345,1105.93,2088.537,1105.93z"/>
		</g>
		<g>
			
				<linearGradient id="SVGID_00000073720066700275518080000014598250923435094462_" gradientUnits="userSpaceOnUse" x1="315.0554" y1="956.4766" x2="3684.9453" y2="956.4766">
				<stop  offset="0" style="stop-color:#183375"/>
				<stop  offset="0.1631" style="stop-color:#193676"/>
				<stop  offset="0.2612" style="stop-color:#1B3E7A"/>
				<stop  offset="0.3421" style="stop-color:#1E4C80"/>
				<stop  offset="0.4136" style="stop-color:#236088"/>
				<stop  offset="0.4783" style="stop-color:#297A93"/>
				<stop  offset="0.5" style="stop-color:#2B8598"/>
				<stop  offset="0.5067" style="stop-color:#2D8197"/>
				<stop  offset="0.5617" style="stop-color:#39618D"/>
				<stop  offset="0.6215" style="stop-color:#444684"/>
				<stop  offset="0.6869" style="stop-color:#4C327E"/>
				<stop  offset="0.761" style="stop-color:#522479"/>
				<stop  offset="0.8507" style="stop-color:#551C77"/>
				<stop  offset="1" style="stop-color:#561976"/>
			</linearGradient>
			<path style="fill:url(#SVGID_00000073720066700275518080000014598250923435094462_);" d="M2089.052,1115.609
				c-61.563,0-93.645-33.262-124.668-65.43c-29.422-30.504-57.211-59.316-110.281-59.316c-56.297,0-83.648,5.625-112.613,11.578
				c-28.664,5.895-58.309,11.988-116.637,11.988c-63.066,0-93.672-52.625-123.273-103.516
				c-27.988-48.121-54.422-93.57-105.984-93.57c-55.563,0-82.602,9.762-111.23,20.098c-28.984,10.469-58.957,21.289-118.023,21.289
				c-55.113,0-76.363,20.23-100.973,43.652c-23.406,22.285-49.941,47.539-108.203,53.531c-50.148,5.156-67.852,3.977-84.977,2.84
				c-19.137-1.273-37.219-2.473-101.305,5.027c-31.078,3.633-60.824,22.156-92.32,41.766
				c-78.375,48.801-175.914,109.523-359.121-14.73c-4.57-3.102-5.762-9.32-2.664-13.891c3.102-4.57,9.324-5.754,13.891-2.664
				c172.453,116.969,260.047,62.43,337.324,14.309c33.449-20.828,65.043-40.5,100.57-44.656
				c65.902-7.711,85.746-6.395,104.953-5.113c16.289,1.082,33.141,2.199,81.602-2.785c51.469-5.289,73.324-26.094,96.461-48.117
				c25.395-24.172,51.652-49.168,114.762-49.168c55.566,0,82.605-9.762,111.234-20.098c28.984-10.469,58.957-21.289,118.02-21.289
				c63.066,0,93.672,52.625,123.273,103.516c27.988,48.121,54.422,93.57,105.984,93.57c56.297,0,83.648-5.625,112.609-11.578
				c28.668-5.895,58.313-11.988,116.641-11.988c61.566,0,93.648,33.262,124.676,65.434c29.418,30.5,57.207,59.313,110.273,59.313
				c50.172,0,71.836-46.426,94.773-95.574c24.629-52.781,50.129-107.359,114.074-95.223c78.125,14.809,106.996-6.32,137.551-28.703
				c25.902-18.969,52.688-38.586,106.418-38.586c62.57,0,93.223,44.539,122.867,87.613c27.941,40.605,54.336,78.957,106.395,78.957
				c54.504,0,81.18-16.289,109.422-33.535c29.359-17.93,59.715-36.469,119.844-36.469c60.656,0,92.418,23.852,123.141,46.918
				c29.387,22.066,57.148,42.91,111.129,42.91c31.91,0,58.871,6.418,87.414,13.215c72.922,17.359,155.566,37.031,348.238-63.461
				c4.895-2.547,10.934-0.652,13.492,4.242c2.555,4.898,0.652,10.938-4.242,13.492c-199.297,103.941-285.797,83.344-362.117,65.184
				c-27.371-6.516-53.227-12.672-82.785-12.672c-60.656,0-92.422-23.852-123.141-46.918c-29.387-22.066-57.148-42.91-111.129-42.91
				c-54.504,0-81.18,16.289-109.422,33.535c-29.359,17.93-59.715,36.469-119.844,36.469c-62.574,0-93.227-44.543-122.871-87.617
				c-27.941-40.602-54.332-78.953-106.391-78.953c-47.188,0-70.219,16.867-94.598,34.723
				c-32.66,23.922-66.434,48.668-153.098,32.215c-48.734-9.25-68.871,33.988-92.227,84.031
				C2178.517,1058.703,2151.958,1115.609,2089.052,1115.609z"/>
		</g>
		<g>
			
				<linearGradient id="SVGID_00000018934270737215556530000002735622087515469708_" gradientUnits="userSpaceOnUse" x1="315.0556" y1="958.8809" x2="3684.946" y2="958.8809">
				<stop  offset="0" style="stop-color:#19367C"/>
				<stop  offset="0.1589" style="stop-color:#1A397D"/>
				<stop  offset="0.2544" style="stop-color:#1B4181"/>
				<stop  offset="0.3332" style="stop-color:#1F4F87"/>
				<stop  offset="0.4028" style="stop-color:#23638F"/>
				<stop  offset="0.4658" style="stop-color:#297D9A"/>
				<stop  offset="0.5" style="stop-color:#2D8FA2"/>
				<stop  offset="0.5206" style="stop-color:#33819D"/>
				<stop  offset="0.574" style="stop-color:#3F6193"/>
				<stop  offset="0.6321" style="stop-color:#4A478B"/>
				<stop  offset="0.6957" style="stop-color:#523285"/>
				<stop  offset="0.7677" style="stop-color:#582480"/>
				<stop  offset="0.8549" style="stop-color:#5B1C7E"/>
				<stop  offset="1" style="stop-color:#5C197D"/>
			</linearGradient>
			<path style="fill:url(#SVGID_00000018934270737215556530000002735622087515469708_);" d="M2089.568,1125.293
				c-61.926,0-94.164-37.785-125.34-74.328c-29.527-34.617-57.422-67.312-110.125-67.312c-56.227,0-83.551,6.008-112.477,12.367
				c-28.699,6.309-58.375,12.832-116.773,12.832c-63.055,0-93.664-52.438-123.266-103.152
				c-27.984-47.945-54.418-93.23-105.992-93.23c-56.184,0-83.488,6.25-112.395,12.863c-28.719,6.574-58.414,13.371-116.859,13.371
				c-53.652,0-75.219,27.578-100.188,59.508c-23.996,30.688-51.191,65.469-111,70.977c-52.141,4.805-71.367,0.203-89.961-4.242
				c-18.977-4.547-38.598-9.242-100.606-2.691c-31.605,3.336-61.723,21.762-93.609,41.27
				c-77.344,47.313-173.609,106.211-351.477-12.672c-4.594-3.066-5.828-9.277-2.758-13.871c3.066-4.586,9.281-5.82,13.867-2.754
				c167.25,111.766,253.672,58.887,329.93,12.234c33.867-20.719,65.855-40.285,101.945-44.098
				c65.426-6.91,86.742-1.801,107.363,3.129c17.793,4.258,34.594,8.277,83.469,3.781c51.207-4.715,73.492-33.211,97.082-63.383
				c25.828-33.031,52.539-67.188,115.941-67.188c56.184,0,83.488-6.25,112.398-12.863c28.719-6.574,58.414-13.371,116.855-13.371
				c63.055,0,93.664,52.438,123.266,103.152c27.984,47.945,54.418,93.231,105.992,93.231c56.227,0,83.551-6.008,112.477-12.367
				c28.699-6.309,58.375-12.832,116.773-12.832c61.93,0,94.168,37.789,125.344,74.332c29.527,34.613,57.422,67.309,110.121,67.309
				c50.055,0,71.313-47.445,93.82-97.68c24.141-53.875,49.082-109.582,113.152-96.469c78.934,16.176,107.75-10.07,138.27-37.859
				c25.871-23.555,52.621-47.91,107.059-47.91c62.73,0,93.371,46.973,123.004,92.398c27.953,42.848,54.355,83.324,106.258,83.324
				c54.219,0,80.816-18.231,108.98-37.531c29.434-20.172,59.871-41.031,120.285-41.031c61.281,0,93.273,30.098,124.215,59.207
				c29.391,27.652,57.156,53.773,110.512,53.773c28.563,0,53.895,3.695,80.715,7.605c81.758,11.918,166.293,24.254,354.648-69.535
				c4.938-2.461,10.949-0.445,13.41,4.496c2.461,4.945,0.449,10.949-4.496,13.41c-193.965,96.566-285.602,83.203-366.449,71.418
				c-26.082-3.801-50.715-7.395-77.828-7.395c-61.285,0-93.277-30.098-124.219-59.207c-29.391-27.652-57.156-53.773-110.508-53.773
				c-54.219,0-80.816,18.23-108.98,37.531c-29.434,20.172-59.871,41.031-120.285,41.031c-62.734,0-93.375-46.973-123.008-92.398
				c-27.953-42.852-54.355-83.324-106.254-83.324c-46.695,0-69.477,20.742-93.594,42.699
				c-32.875,29.926-66.875,60.875-155.75,42.664c-45.047-9.23-64.414,25.969-90.883,85.051
				C2178.642,1067.117,2152.58,1125.293,2089.568,1125.293z"/>
		</g>
		<g>
			
				<linearGradient id="SVGID_00000139268487474308774620000018271560901271197599_" gradientUnits="userSpaceOnUse" x1="315.0544" y1="961.2852" x2="3684.9446" y2="961.2852">
				<stop  offset="0" style="stop-color:#193983"/>
				<stop  offset="0.155" style="stop-color:#1A3C84"/>
				<stop  offset="0.2483" style="stop-color:#1B4488"/>
				<stop  offset="0.3252" style="stop-color:#1F528E"/>
				<stop  offset="0.3931" style="stop-color:#236696"/>
				<stop  offset="0.4546" style="stop-color:#2980A2"/>
				<stop  offset="0.5" style="stop-color:#2F99AC"/>
				<stop  offset="0.5318" style="stop-color:#3882A5"/>
				<stop  offset="0.5839" style="stop-color:#45629B"/>
				<stop  offset="0.6407" style="stop-color:#504892"/>
				<stop  offset="0.7028" style="stop-color:#58338C"/>
				<stop  offset="0.7731" style="stop-color:#5E2587"/>
				<stop  offset="0.8583" style="stop-color:#611D85"/>
				<stop  offset="1" style="stop-color:#621A84"/>
			</linearGradient>
			<path style="fill:url(#SVGID_00000139268487474308774620000018271560901271197599_);" d="M2090.087,1134.977
				c-62.254,0-94.625-42.289-125.934-83.188c-29.66-38.75-57.672-75.348-110.051-75.348c-56.156,0-83.449,6.387-112.348,13.152
				c-28.727,6.723-58.434,13.676-116.902,13.676c-63.047,0-93.656-52.25-123.258-102.781c-27.984-47.773-54.418-92.894-106-92.894
				c-56.828,0-85.723,2.793-113.664,5.496c-28.41,2.746-57.793,5.586-115.59,5.586c-52.66,0-74.637,35.035-100.086,75.598
				c-24.473,39.012-52.211,83.23-113.109,88.191c-53.676,4.375-74.336-3.766-94.309-11.637
				c-20.609-8.117-40.078-15.797-100.547-10.102c-32.156,3.027-62.656,21.355-94.949,40.766
				c-76.301,45.844-171.246,102.906-343.781-10.598c-4.613-3.035-5.895-9.238-2.859-13.851c3.039-4.613,9.238-5.887,13.852-2.859
				c162.02,106.602,247.27,55.367,322.484,10.164c34.301-20.613,66.695-40.082,103.379-43.535
				c65.219-6.137,87.863,2.785,109.754,11.41c18.668,7.355,36.309,14.309,85.352,10.305c50.906-4.145,73.68-40.445,97.793-78.883
				c26.203-41.773,53.305-84.969,117.027-84.969c56.832,0,85.727-2.793,113.668-5.496c28.41-2.746,57.793-5.586,115.586-5.586
				c63.047,0,93.656,52.25,123.258,102.785c27.984,47.77,54.418,92.891,106,92.891c56.156,0,83.449-6.387,112.348-13.152
				c28.727-6.723,58.434-13.676,116.902-13.676c62.254,0,94.625,42.289,125.934,83.191c29.66,38.746,57.672,75.344,110.051,75.344
				c49.949,0,70.801-48.473,92.875-99.789c23.641-54.973,48.121-111.816,112.211-97.707c79.902,17.563,108.781-13.863,139.34-47.164
				c25.758-28.066,52.398-57.09,107.355-57.09c62.879,0,93.508,49.398,123.129,97.168c27.965,45.106,54.383,87.711,106.133,87.711
				c53.949,0,80.484-20.168,108.582-41.524c29.496-22.418,60-45.601,120.684-45.601c61.82,0,93.977,36.316,125.078,71.434
				c29.457,33.269,57.285,64.695,110.102,64.695c22.91,0,45.121,1.488,66.602,2.926c88.691,5.938,180.406,12.074,368.504-76.543
				c4.992-2.355,10.953-0.211,13.309,4.785c2.352,4.996,0.211,10.953-4.785,13.309c-192.785,90.828-287.125,84.519-378.363,78.402
				c-22.125-1.48-43.023-2.879-65.266-2.879c-61.82,0-93.977-36.316-125.078-71.434c-29.457-33.269-57.285-64.695-110.102-64.695
				c-53.949,0-80.484,20.172-108.582,41.523c-29.496,22.418-60,45.602-120.684,45.602c-62.883,0-93.512-49.399-123.133-97.172
				c-27.965-45.105-54.383-87.707-106.129-87.707c-46.168,0-68.734,24.586-92.621,50.613
				c-31.504,34.328-67.227,73.242-158.371,53.172c-44.77-9.848-63.684,25.953-89.543,86.078
				C2178.775,1075.535,2153.205,1134.977,2090.087,1134.977z"/>
		</g>
		<g>
			
				<linearGradient id="SVGID_00000018198058467684810140000005419515055725169807_" gradientUnits="userSpaceOnUse" x1="315.0556" y1="961.6544" x2="3684.9463" y2="961.6544">
				<stop  offset="0" style="stop-color:#193C8A"/>
				<stop  offset="0.1511" style="stop-color:#1A3F8B"/>
				<stop  offset="0.242" style="stop-color:#1C478F"/>
				<stop  offset="0.3169" style="stop-color:#1F5595"/>
				<stop  offset="0.3831" style="stop-color:#23699E"/>
				<stop  offset="0.4431" style="stop-color:#2983A9"/>
				<stop  offset="0.4987" style="stop-color:#31A3B7"/>
				<stop  offset="0.5" style="stop-color:#31A4B7"/>
				<stop  offset="0.5442" style="stop-color:#3F82AC"/>
				<stop  offset="0.5949" style="stop-color:#4B62A2"/>
				<stop  offset="0.6502" style="stop-color:#56479A"/>
				<stop  offset="0.7107" style="stop-color:#5E3393"/>
				<stop  offset="0.7791" style="stop-color:#64258E"/>
				<stop  offset="0.8621" style="stop-color:#671D8C"/>
				<stop  offset="1" style="stop-color:#681A8B"/>
			</linearGradient>
			<path style="fill:url(#SVGID_00000018198058467684810140000005419515055725169807_);" d="M2090.603,1144.66
				c-62.543,0-95.035-46.773-126.461-92.008c-29.801-42.902-57.953-83.422-110.039-83.422c-56.09,0-83.352,6.769-112.215,13.938
				c-28.762,7.141-58.5,14.523-117.035,14.523c-63.035,0-93.645-52.066-123.25-102.418c-27.984-47.598-54.414-92.555-106.008-92.555
				c-57.488,0-86.715-1.039-114.98-2.043c-28.09-0.996-57.137-2.027-114.273-2.027c-51.938,0-75.449,44.621-100.34,91.867
				c-26.117,49.574-53.129,100.84-114.863,105.219c-55.043,3.891-77.027-7.832-98.301-19.18
				c-21.445-11.438-41.699-22.254-100.848-17.355c-32.73,2.703-63.629,20.945-96.344,40.254
				c-75.219,44.402-168.816,99.656-336.023-8.52c-4.637-3-5.961-9.188-2.961-13.828c3.004-4.633,9.199-5.953,13.828-2.961
				c156.824,101.461,240.852,51.856,314.988,8.086c34.746-20.508,67.563-39.883,104.863-42.961
				c65.008-5.394,88.852,7.34,111.906,19.641c19.645,10.473,38.203,20.375,87.477,16.871c50.641-3.59,73.93-47.793,98.586-94.59
				c26.559-50.414,54.027-102.543,118.031-102.543c57.492,0,86.719,1.039,114.984,2.043c28.09,0.996,57.137,2.027,114.27,2.027
				c63.035,0,93.645,52.066,123.25,102.418c27.984,47.598,54.414,92.555,106.008,92.555c56.09,0,83.352-6.77,112.215-13.938
				c28.762-7.141,58.5-14.523,117.035-14.523c62.547,0,95.039,46.773,126.465,92.012c29.801,42.898,57.949,83.418,110.035,83.418
				c49.848,0,70.289-49.5,91.934-101.906c23.145-56.047,47.09-114.02,111.266-98.938c81.027,19.012,109.996-17.723,140.645-56.625
				c25.598-32.504,52.07-66.109,107.422-66.109c63.02,0,93.633,51.817,123.238,101.926c27.984,47.363,54.414,92.102,106.023,92.102
				c53.691,0,80.18-22.109,108.227-45.519c29.547-24.66,60.098-50.164,121.039-50.164c62.281,0,94.563,42.496,125.777,83.59
				c29.57,38.922,57.5,75.688,109.855,75.688c11.023,0,21.934,0.105,32.852,0.215c100.027,0.961,203.434,1.996,402.031-85.531
				c5.039-2.223,10.953,0.066,13.184,5.121c2.227,5.051-0.066,10.953-5.121,13.184c-202.539,89.262-308.141,88.258-410.293,87.223
				c-10.848-0.105-21.695-0.211-32.652-0.211c-62.281,0-94.563-42.496-125.781-83.59c-29.566-38.922-57.496-75.688-109.852-75.688
				c-53.691,0-80.18,22.109-108.227,45.52c-29.543,24.66-60.098,50.164-121.039,50.164c-63.023,0-93.637-51.816-123.242-101.93
				c-27.98-47.363-54.414-92.098-106.02-92.098c-45.645,0-66.992,27.102-91.711,58.484c-31.625,40.148-67.48,85.676-160.926,63.719
				c-44.426-10.406-62.957,25.953-88.211,87.102C2178.9,1083.949,2153.83,1144.66,2090.603,1144.66z"/>
		</g>
		<g>
			
				<linearGradient id="SVGID_00000001640340902255585030000002327008935912646794_" gradientUnits="userSpaceOnUse" x1="315.0547" y1="956.4824" x2="3684.9458" y2="956.4824">
				<stop  offset="0" style="stop-color:#1A3F91"/>
				<stop  offset="0.148" style="stop-color:#1B4292"/>
				<stop  offset="0.2369" style="stop-color:#1C4A96"/>
				<stop  offset="0.3103" style="stop-color:#20589C"/>
				<stop  offset="0.3752" style="stop-color:#246CA5"/>
				<stop  offset="0.4345" style="stop-color:#2A87B0"/>
				<stop  offset="0.4889" style="stop-color:#31A7BE"/>
				<stop  offset="0.5" style="stop-color:#33AEC1"/>
				<stop  offset="0.5059" style="stop-color:#35A9BF"/>
				<stop  offset="0.5526" style="stop-color:#4483B4"/>
				<stop  offset="0.603" style="stop-color:#5163A9"/>
				<stop  offset="0.6572" style="stop-color:#5C49A1"/>
				<stop  offset="0.7165" style="stop-color:#64349B"/>
				<stop  offset="0.7836" style="stop-color:#6A2696"/>
				<stop  offset="0.8648" style="stop-color:#6D1E94"/>
				<stop  offset="1" style="stop-color:#6E1B93"/>
			</linearGradient>
			<path style="fill:url(#SVGID_00000001640340902255585030000002327008935912646794_);" d="M2091.119,1154.344
				c-62.805,0-95.41-51.238-126.941-100.793c-29.953-47.07-58.246-91.531-110.074-91.531c-56.023,0-83.254,7.149-112.086,14.719
				c-28.789,7.559-58.559,15.375-117.164,15.375c-63.023,0-93.637-51.879-123.242-102.055
				c-27.98-47.422-54.41-92.215-106.016-92.215c-58.145,0-87.699-4.957-116.277-9.75c-29.055-4.871-56.496-9.473-112.977-9.473
				c-51.383,0-75.379,52.586-100.789,108.258c-26.555,58.184-54.012,118.352-116.422,122.125
				c-56.289,3.418-79.523-11.961-102.051-26.813c-22.328-14.727-43.43-28.645-101.391-24.52
				c-33.332,2.363-64.644,20.52-97.797,39.738c-74.102,42.965-166.32,96.43-328.199-6.43c-4.66-2.965-6.039-9.145-3.078-13.805
				c2.969-4.664,9.148-6.031,13.805-3.078c151.621,96.359,234.406,48.355,307.441,6.012c35.211-20.414,68.469-39.695,106.414-42.391
				c64.746-4.578,90.813,12.605,113.816,27.777c20.699,13.652,40.269,26.57,89.828,23.547
				c50.414-3.051,74.227-55.227,99.438-110.465c26.914-58.977,54.746-119.957,118.984-119.957c58.148,0,87.703,4.957,116.281,9.75
				c29.055,4.871,56.492,9.473,112.973,9.473c63.023,0,93.637,51.879,123.242,102.055c27.98,47.422,54.41,92.215,106.016,92.215
				c56.023,0,83.254-7.148,112.086-14.719c28.789-7.558,58.563-15.375,117.164-15.375c62.805,0,95.414,51.242,126.945,100.793
				c29.953,47.07,58.246,91.531,110.07,91.531c49.754,0,69.789-50.531,90.996-104.031c22.648-57.117,46.063-116.215,110.313-100.164
				c82.277,20.516,111.352-21.625,142.117-66.25c25.406-36.855,51.676-74.965,107.324-74.965c63.152,0,93.75,54.231,123.34,106.676
				c27.996,49.629,54.445,96.508,105.922,96.508c53.449,0,79.902-24.055,107.906-49.523c29.582-26.906,60.176-54.727,121.359-54.727
				c62.676,0,95.055,48.637,126.367,95.672c29.703,44.617,57.758,86.758,109.723,86.758c120.75,0,235.59-16.23,434.695-97.023
				c5.133-2.078,10.949,0.395,13.027,5.504c2.078,5.117-0.387,10.949-5.504,13.027c-202.121,82.016-319.059,98.492-442.219,98.492
				c-62.676,0-95.059-48.637-126.371-95.676c-29.703-44.613-57.758-86.754-109.719-86.754c-53.449,0-79.898,24.055-107.906,49.523
				c-29.582,26.906-60.176,54.727-121.359,54.727c-63.156,0-93.754-54.234-123.344-106.68
				c-27.996-49.629-54.445-96.504-105.918-96.504c-45.145,0-66.328,30.731-90.859,66.316
				c-31.727,46.019-67.688,98.191-163.418,74.305c-44.078-11.004-62.238,25.961-86.883,88.129
				C2179.029,1092.367,2154.458,1154.344,2091.119,1154.344z"/>
		</g>
		<g>
			
				<linearGradient id="SVGID_00000151545285720055864340000013928329368430311081_" gradientUnits="userSpaceOnUse" x1="315.0561" y1="951.3106" x2="3684.9465" y2="951.3106">
				<stop  offset="0" style="stop-color:#1A4298"/>
				<stop  offset="0.1451" style="stop-color:#1B4599"/>
				<stop  offset="0.2323" style="stop-color:#1D4D9D"/>
				<stop  offset="0.3043" style="stop-color:#205BA3"/>
				<stop  offset="0.3679" style="stop-color:#2570AC"/>
				<stop  offset="0.426" style="stop-color:#2B8AB7"/>
				<stop  offset="0.4794" style="stop-color:#33AAC5"/>
				<stop  offset="0.5" style="stop-color:#36B8CB"/>
				<stop  offset="0.5163" style="stop-color:#3CA9C6"/>
				<stop  offset="0.562" style="stop-color:#4B83BA"/>
				<stop  offset="0.6113" style="stop-color:#5863B0"/>
				<stop  offset="0.6644" style="stop-color:#6249A8"/>
				<stop  offset="0.7225" style="stop-color:#6A34A2"/>
				<stop  offset="0.7881" style="stop-color:#70269D"/>
				<stop  offset="0.8677" style="stop-color:#731E9B"/>
				<stop  offset="1" style="stop-color:#741B9A"/>
			</linearGradient>
			<path style="fill:url(#SVGID_00000151545285720055864340000013928329368430311081_);" d="M2091.638,1164.027
				c-63.039,0-95.75-55.688-127.387-109.543c-30.113-51.258-58.555-99.676-110.148-99.676c-55.953,0-83.156,7.527-111.957,15.5
				c-28.82,7.977-58.621,16.223-117.293,16.223c-63.016,0-93.629-51.695-123.234-101.688c-27.98-47.246-54.41-91.875-106.023-91.875
				c-58.777,0-88.629-8.953-117.496-17.609c-28.754-8.621-55.91-16.766-111.758-16.766c-50.941,0-75.43,60.59-101.359,124.738
				c-26.98,66.754-54.883,135.781-117.859,138.942c-57.316,2.871-81.891-16.133-105.629-34.512
				c-23.25-17.996-45.254-35.012-102.105-31.621c-33.961,2.012-65.703,20.086-99.309,39.223
				c-76.762,43.707-163.766,93.246-320.312-4.336c-4.688-2.922-6.117-9.09-3.195-13.777c2.922-4.688,9.098-6.109,13.773-3.199
				c146.434,91.281,224.414,46.875,299.84,3.93c35.688-20.32,69.398-39.516,108.016-41.805
				c64.406-3.832,91.563,17.215,115.539,35.773c22.766,17.629,42.387,32.867,92.383,30.348
				c50.223-2.519,74.555-62.723,100.316-126.461c27.273-67.473,55.473-137.242,119.902-137.242c58.781,0,88.633,8.953,117.5,17.609
				c28.754,8.621,55.91,16.766,111.754,16.766c63.016,0,93.629,51.695,123.234,101.688c27.98,47.246,54.41,91.875,106.023,91.875
				c55.953,0,83.156-7.527,111.957-15.5c28.82-7.977,58.621-16.223,117.293-16.223c63.039,0,95.754,55.691,127.391,109.547
				c30.113,51.258,58.555,99.672,110.145,99.672c49.664,0,69.289-51.566,90.063-106.16
				c21.105-55.473,45.051-118.336,109.352-101.379c83.633,22.047,112.801-25.594,143.699-76.039
				c25.195-41.129,51.25-83.664,107.117-83.664c63.281,0,93.855,56.641,123.43,111.414c28.016,51.902,54.48,100.922,105.832,100.922
				c53.223,0,79.645-26.004,107.617-53.531c29.617-29.145,60.238-59.277,121.648-59.277c63.016,0,95.477,54.746,126.871,107.688
				c29.852,50.34,58.047,97.891,109.672,97.891c114.434,0,245.996-39.871,434.574-108.746c5.188-1.871,10.926,0.781,12.824,5.965
				c1.895,5.188-0.777,10.93-5.965,12.824c-190.684,69.641-324.043,109.957-441.434,109.957c-63.016,0-95.48-54.746-126.875-107.691
				c-29.852-50.34-58.047-97.887-109.668-97.887c-53.223,0-79.645,26.004-107.617,53.531
				c-29.613,29.144-60.238,59.277-121.648,59.277c-63.281,0-93.859-56.641-123.434-111.418
				c-28.016-51.898-54.48-100.918-105.828-100.918c-44.664,0-65.703,34.344-90.063,74.113
				c-31.809,51.918-67.852,110.77-165.855,84.926c-43.781-11.555-61.523,25.984-85.559,89.156
				C2179.158,1100.781,2155.091,1164.027,2091.638,1164.027z"/>
		</g>
		<g>
			
				<linearGradient id="SVGID_00000071546369723382014480000010219262642159785107_" gradientUnits="userSpaceOnUse" x1="315.0539" y1="946.1406" x2="3684.946" y2="946.1406">
				<stop  offset="0" style="stop-color:#1A459F"/>
				<stop  offset="0.142" style="stop-color:#1B48A0"/>
				<stop  offset="0.2275" style="stop-color:#1D50A4"/>
				<stop  offset="0.2979" style="stop-color:#205EAA"/>
				<stop  offset="0.3602" style="stop-color:#2573B3"/>
				<stop  offset="0.4171" style="stop-color:#2B8DBE"/>
				<stop  offset="0.4694" style="stop-color:#33ADCC"/>
				<stop  offset="0.5" style="stop-color:#38C3D6"/>
				<stop  offset="0.5258" style="stop-color:#42AACE"/>
				<stop  offset="0.5705" style="stop-color:#5184C2"/>
				<stop  offset="0.619" style="stop-color:#5E64B8"/>
				<stop  offset="0.671" style="stop-color:#684AAF"/>
				<stop  offset="0.7279" style="stop-color:#7035A9"/>
				<stop  offset="0.7923" style="stop-color:#7627A4"/>
				<stop  offset="0.8703" style="stop-color:#791FA2"/>
				<stop  offset="1" style="stop-color:#7A1CA1"/>
			</linearGradient>
			<path style="fill:url(#SVGID_00000071546369723382014480000010219262642159785107_);" d="M2092.154,1173.711
				c-63.25,0-96.066-60.121-127.801-118.266c-30.273-55.461-58.867-107.848-110.25-107.848c-55.887,0-83.063,7.906-111.832,16.281
				c-28.848,8.395-58.68,17.074-117.418,17.074c-63.004,0-93.617-51.508-123.227-101.32
				c-27.977-47.074-54.406-91.539-106.031-91.539c-59.379,0-89.48-13.004-118.59-25.582c-28.5-12.313-55.418-23.941-110.664-23.941
				c-50.582,0-75.563,68.621-102.004,141.27c-27.41,75.305-55.754,153.168-119.223,155.703
				c-58.336,2.316-84.156-20.336-109.086-42.254c-24.184-21.266-47.063-41.352-102.945-38.684
				c-34.621,1.648-66.805,19.648-100.879,38.703c-75.523,42.23-161.117,90.105-312.359-2.234c-4.715-2.879-6.203-9.031-3.324-13.746
				c2.883-4.715,9.043-6.199,13.746-3.324c141.25,86.242,217.98,43.34,292.176,1.848c36.188-20.234,70.367-39.352,109.688-41.223
				c64-3.023,92.219,21.758,117.105,43.641c23.988,21.09,44.695,39.277,95.082,37.289c50.063-2,76.07-73.457,101.227-142.559
				c27.633-75.922,56.211-154.43,120.797-154.43c59.383,0,89.484,13.004,118.594,25.582c28.5,12.313,55.418,23.941,110.66,23.941
				c63.004,0,93.617,51.508,123.227,101.32c27.977,47.074,54.406,91.539,106.031,91.539c55.887,0,83.063-7.906,111.832-16.281
				c28.848-8.394,58.68-17.074,117.418-17.074c63.25,0,96.07,60.125,127.805,118.266c30.273,55.461,58.867,107.848,110.246,107.848
				c49.582,0,68.793-52.602,89.129-108.289c20.621-56.484,44.004-120.531,108.391-102.594
				c84.98,23.621,114.316-29.609,145.363-85.973c24.977-45.336,50.801-92.219,106.832-92.219
				c63.398,0,93.957,59.047,123.508,116.148c28.039,54.176,54.52,105.344,105.754,105.344c53.008,0,79.41-27.957,107.363-57.551
				c29.633-31.375,60.273-63.82,121.902-63.82c63.309,0,95.848,60.824,127.316,119.645c30.008,56.098,58.352,109.082,109.68,109.082
				c82.816,0,184.203-35.113,301.598-75.769c42.555-14.738,86.559-29.981,132.926-44.707c5.262-1.668,10.887,1.238,12.559,6.504
				c1.672,5.266-1.238,10.887-6.504,12.559c-46.121,14.648-90,29.844-132.434,44.543c-119.102,41.246-221.961,76.871-308.145,76.871
				c-63.309,0-95.848-60.824-127.316-119.644c-30.008-56.098-58.352-109.082-109.68-109.082c-53.008,0-79.41,27.957-107.363,57.551
				c-29.633,31.375-60.277,63.82-121.902,63.82c-63.402,0-93.961-59.047-123.516-116.152
				c-28.035-54.172-54.516-105.34-105.746-105.34c-44.215,0-65.113,37.941-89.313,81.871
				c-31.879,57.867-68.008,123.43-168.242,95.59c-44.305-12.356-60.895,26.234-84.246,90.184
				C2179.283,1109.199,2155.724,1173.711,2092.154,1173.711z"/>
		</g>
		<g>
			
				<linearGradient id="SVGID_00000029020497004526077360000004702776740078002873_" gradientUnits="userSpaceOnUse" x1="315.0547" y1="940.9688" x2="3684.9451" y2="940.9688">
				<stop  offset="0" style="stop-color:#1B48A7"/>
				<stop  offset="0.1396" style="stop-color:#1C4BA8"/>
				<stop  offset="0.2235" style="stop-color:#1E53AC"/>
				<stop  offset="0.2928" style="stop-color:#2161B2"/>
				<stop  offset="0.354" style="stop-color:#2676BB"/>
				<stop  offset="0.41" style="stop-color:#2C90C6"/>
				<stop  offset="0.4613" style="stop-color:#33B0D3"/>
				<stop  offset="0.5" style="stop-color:#3ACDE0"/>
				<stop  offset="0.5345" style="stop-color:#48AAD5"/>
				<stop  offset="0.5785" style="stop-color:#5784C9"/>
				<stop  offset="0.626" style="stop-color:#6464BF"/>
				<stop  offset="0.6771" style="stop-color:#6E4AB6"/>
				<stop  offset="0.7329" style="stop-color:#7635B0"/>
				<stop  offset="0.7961" style="stop-color:#7C27AB"/>
				<stop  offset="0.8727" style="stop-color:#7F1FA9"/>
				<stop  offset="1" style="stop-color:#801CA8"/>
			</linearGradient>
			<path style="fill:url(#SVGID_00000029020497004526077360000004702776740078002873_);" d="M2092.673,1183.395
				c-63.441,0-96.359-64.543-128.195-126.961c-30.434-59.68-59.184-116.047-110.375-116.047c-55.82,0-82.965,8.285-111.707,17.059
				c-28.875,8.816-58.738,17.93-117.543,17.93c-62.992,0-93.609-51.32-123.219-100.957c-27.977-46.899-54.402-91.199-106.039-91.199
				c-59.938,0-90.238-17.094-119.539-33.629c-28.297-15.965-55.027-31.047-109.715-31.047c-50.285,0-76.93,80.242-102.699,157.84
				c-27.84,83.836-56.625,170.523-120.531,172.43c-59.355,1.73-86.352-24.57-112.465-50.047
				c-25.121-24.508-48.742-47.715-103.863-45.695c-35.316,1.266-67.965,19.195-102.531,38.18
				c-74.246,40.777-158.414,86.992-304.32-0.125c-4.742-2.832-6.293-8.969-3.461-13.711c2.832-4.742,8.98-6.293,13.711-3.461
				c136.082,81.246,211.508,39.82,284.445-0.234c36.707-20.156,71.375-39.199,111.438-40.633
				c63.625-2.262,92.777,26.215,118.551,51.363c24.188,23.598,47.035,45.953,97.902,44.371
				c49.926-1.488,76.473-81.43,102.145-158.738c28.004-84.336,56.961-171.539,121.68-171.539c59.941,0,90.242,17.098,119.543,33.629
				c28.297,15.965,55.027,31.047,109.711,31.047c62.992,0,93.609,51.324,123.219,100.953
				c27.977,46.902,54.402,91.203,106.039,91.203c55.82,0,82.965-8.285,111.707-17.059c28.879-8.816,58.738-17.93,117.543-17.93
				c63.441,0,96.359,64.543,128.195,126.961c30.434,59.68,59.184,116.047,110.375,116.047c49.5,0,69.168-56.137,88.191-110.426
				c20.137-57.477,42.98-122.652,107.426-103.805c86.41,25.23,115.887-33.672,147.086-96.039
				c24.75-49.477,50.344-100.637,106.492-100.637c63.512,0,94.051,61.445,123.582,120.871
				c28.059,56.453,54.559,109.773,105.68,109.773c52.805,0,79.195-29.914,107.133-61.582
				c29.648-33.605,60.305-68.352,122.133-68.352c63.566,0,96.176,66.879,127.715,131.559
				c30.168,61.879,58.664,120.324,109.734,120.324c67.051,0,152.879-32.688,243.746-67.293
				c62.051-23.633,126.215-48.066,190.828-64.926c5.34-1.41,10.809,1.809,12.199,7.152c1.395,5.344-1.809,10.805-7.152,12.199
				c-63.559,16.586-127.207,40.824-188.758,64.266c-92.637,35.277-180.133,68.602-250.863,68.602
				c-63.566,0-96.176-66.879-127.715-131.559c-30.168-61.879-58.664-120.324-109.734-120.324
				c-52.805,0-79.195,29.914-107.133,61.582c-29.648,33.605-60.305,68.352-122.133,68.352c-63.516,0-94.055-61.449-123.59-120.871
				c-28.055-56.453-54.555-109.773-105.672-109.773c-43.789,0-64.559,41.516-88.605,89.582
				c-31.938,63.844-68.133,136.211-170.582,106.289c-44.031-12.863-60.195,26.289-82.945,91.223
				C2179.404,1117.617,2156.357,1183.395,2092.673,1183.395z"/>
		</g>
		<g>
			
				<linearGradient id="SVGID_00000044879465919563746040000013497614975957060747_" gradientUnits="userSpaceOnUse" x1="315.0534" y1="935.7969" x2="3684.9451" y2="935.7969">
				<stop  offset="0" style="stop-color:#1B4BAE"/>
				<stop  offset="0.1373" style="stop-color:#1C4EAF"/>
				<stop  offset="0.2199" style="stop-color:#1E56B3"/>
				<stop  offset="0.288" style="stop-color:#2164B9"/>
				<stop  offset="0.3482" style="stop-color:#2678C1"/>
				<stop  offset="0.4032" style="stop-color:#2C93CD"/>
				<stop  offset="0.4537" style="stop-color:#33B3DA"/>
				<stop  offset="0.5" style="stop-color:#3CD7EA"/>
				<stop  offset="0.5009" style="stop-color:#3CD6EA"/>
				<stop  offset="0.5419" style="stop-color:#4EABDC"/>
				<stop  offset="0.5851" style="stop-color:#5D85D0"/>
				<stop  offset="0.6319" style="stop-color:#6965C6"/>
				<stop  offset="0.6822" style="stop-color:#744BBE"/>
				<stop  offset="0.7372" style="stop-color:#7C36B8"/>
				<stop  offset="0.7993" style="stop-color:#8228B3"/>
				<stop  offset="0.8747" style="stop-color:#8520B1"/>
				<stop  offset="1" style="stop-color:#861DB0"/>
			</linearGradient>
			<path style="fill:url(#SVGID_00000044879465919563746040000013497614975957060747_);" d="M2093.189,1193.078
				c-63.613,0-96.629-68.949-128.559-135.629c-30.605-63.91-59.508-124.273-110.527-124.273c-55.754,0-82.871,8.664-111.582,17.836
				c-28.906,9.234-58.797,18.785-117.668,18.785c-62.984,0-93.598-51.137-123.207-100.59
				c-27.98-46.726-54.406-90.863-106.051-90.863c-60.449,0-90.895-21.203-120.34-41.707
				c-28.148-19.605-54.738-38.121-108.914-38.121c-50.039,0-77.188,88.66-103.441,174.398
				c-28.27,92.324-57.5,187.793-121.777,189.16c-60.367,1.137-88.477-28.926-115.754-57.965
				c-26.07-27.754-50.754-53.926-104.875-52.574c-36.113,0.801-69.277,18.691-104.391,37.633
				c-72.906,39.328-155.555,83.906-296.082,2.012c-4.773-2.781-6.387-8.902-3.605-13.676c2.785-4.77,8.91-6.379,13.676-3.605
				c130.848,76.254,204.898,36.297,276.519-2.336c37.289-20.113,72.512-39.113,113.402-40.019c1.539-0.043,3.055-0.063,4.555-0.063
				c60.019,0,89.391,31.269,115.379,58.934c25.41,27.055,49.281,52.754,100.777,51.664c49.785-1.059,76.863-89.496,103.051-175.02
				c28.387-92.691,57.734-188.543,122.566-188.543c60.453,0,90.898,21.203,120.344,41.707
				c28.148,19.605,54.738,38.121,108.91,38.121c62.984,0,93.598,51.137,123.207,100.59c27.98,46.727,54.406,90.863,106.051,90.863
				c55.754,0,82.871-8.664,111.582-17.836c28.906-9.234,58.797-18.785,117.668-18.785c63.617,0,96.633,68.953,128.566,135.633
				c30.602,63.906,59.504,124.27,110.52,124.27c49.43,0,68.66-57.227,87.258-112.57c19.652-58.473,41.938-124.75,106.457-105.004
				c87.887,26.883,117.492-37.777,148.852-106.242c24.523-53.551,49.887-108.922,106.113-108.922
				c63.617,0,94.137,63.844,123.652,125.586c28.074,58.734,54.598,114.215,105.609,114.215c52.613,0,78.996-31.875,106.93-65.625
				c29.652-35.824,60.316-72.871,122.336-72.871c63.793,0,96.473,72.914,128.074,143.426
				c30.336,67.68,58.988,131.605,109.832,131.605c60.453,0,139.785-33.844,223.777-69.68
				c70.723-30.172,143.852-61.371,210.977-74.277c5.445-1.027,10.664,2.508,11.707,7.934c1.043,5.422-2.508,10.664-7.934,11.707
				c-65.02,12.504-137.148,43.273-206.902,73.035c-85.926,36.656-167.086,71.281-231.625,71.281
				c-63.797,0-96.477-72.914-128.082-143.426c-30.332-67.68-58.984-131.606-109.824-131.606c-52.613,0-78.996,31.875-106.93,65.625
				c-29.652,35.824-60.316,72.871-122.336,72.871c-63.621,0-94.141-63.844-123.656-125.59
				c-28.074-58.734-54.594-114.211-105.605-114.211c-43.391,0-65.027,47.238-87.93,97.25
				c-26.961,58.867-56.965,124.352-128.324,124.359c-13.332,0.004-28.094-2.281-44.563-7.32
				c-43.742-13.387-59.5,26.348-81.645,92.25C2179.525,1126.031,2156.994,1193.078,2093.189,1193.078z"/>
		</g>
		<g>
			
				<linearGradient id="SVGID_00000039118246653540803280000003200867862491163062_" gradientUnits="userSpaceOnUse" x1="315.0555" y1="930.625" x2="3684.9424" y2="930.625">
				<stop  offset="0" style="stop-color:#1C4EB5"/>
				<stop  offset="0.1349" style="stop-color:#1D51B6"/>
				<stop  offset="0.216" style="stop-color:#1F59BA"/>
				<stop  offset="0.2829" style="stop-color:#2267C0"/>
				<stop  offset="0.342" style="stop-color:#267CC9"/>
				<stop  offset="0.3961" style="stop-color:#2C96D4"/>
				<stop  offset="0.4464" style="stop-color:#34B6E2"/>
				<stop  offset="0.493" style="stop-color:#3DDCF2"/>
				<stop  offset="0.5" style="stop-color:#3EE2F5"/>
				<stop  offset="0.5092" style="stop-color:#42D7F2"/>
				<stop  offset="0.5494" style="stop-color:#54ACE4"/>
				<stop  offset="0.5927" style="stop-color:#6385D8"/>
				<stop  offset="0.6386" style="stop-color:#7065CE"/>
				<stop  offset="0.688" style="stop-color:#7A4BC5"/>
				<stop  offset="0.742" style="stop-color:#8236BF"/>
				<stop  offset="0.803" style="stop-color:#8828BA"/>
				<stop  offset="0.877" style="stop-color:#8B20B8"/>
				<stop  offset="1" style="stop-color:#8C1DB7"/>
			</linearGradient>
			<path style="fill:url(#SVGID_00000039118246653540803280000003200867862491163062_);" d="M2093.705,1202.762
				c-63.77,0-96.887-73.348-128.914-144.281c-30.766-68.148-59.828-132.516-110.688-132.516c-55.688,0-82.777,9.039-111.461,18.609
				c-28.934,9.656-58.852,19.641-117.789,19.641c-62.973,0-93.59-50.949-123.199-100.223
				c-27.977-46.551-54.402-90.523-106.059-90.523c-60.918,0-91.465-25.313-121.004-49.789
				c-28.047-23.242-54.539-45.191-108.25-45.191c-49.816,0-77.457,97.109-104.188,191.02
				c-30.031,105.5-58.395,205.148-123.043,205.836c-0.492,0.004-0.988,0.008-1.477,0.008c-60.176,0-89.355-33.461-117.586-65.832
				c-27-30.961-52.418-60.133-105.867-59.516c-36.852,0.406-70.5,18.234-106.121,37.113
				c-71.566,37.914-152.676,80.895-287.941,4.117c-4.801-2.727-6.484-8.828-3.758-13.633c2.727-4.805,8.836-6.488,13.633-3.758
				c125.719,71.352,198.406,32.84,268.699-4.398c37.832-20.047,73.563-38.98,115.25-39.441c0.73-0.008,1.457-0.012,2.18-0.012
				c61.106,0,90.527,33.738,119,66.379c26.66,30.566,51.856,59.492,103.793,58.973c49.699-0.527,77.305-97.516,104-191.312
				c30.09-105.703,58.508-205.543,123.426-205.543c60.918,0,91.469,25.313,121.008,49.789
				c28.047,23.242,54.539,45.191,108.246,45.191c62.973,0,93.59,50.949,123.199,100.223c27.977,46.551,54.402,90.523,106.059,90.523
				c55.688,0,82.777-9.039,111.461-18.609c28.934-9.656,58.852-19.641,117.789-19.641c63.773,0,96.891,73.352,128.918,144.285
				c30.766,68.145,59.828,132.512,110.684,132.512c49.355,0,68.148-58.316,86.32-114.715
				c19.164-59.465,40.887-126.894,105.492-106.199c89.367,28.559,119.129-41.93,150.641-116.563
				c24.301-57.566,49.434-117.094,105.711-117.094c63.719,0,94.219,66.238,123.711,130.293
				c28.098,61.023,54.641,118.664,105.551,118.664c52.434,0,78.816-33.844,106.746-69.676c29.656-38.043,60.32-77.383,122.52-77.383
				c63.996,0,96.746,78.93,128.418,155.258c29.152,70.266,59.301,142.922,109.941,142.922c56.953,0,137.715-38.297,215.816-75.336
				c76.094-36.086,154.777-73.402,219.301-80.336c5.504-0.594,10.422,3.383,11.012,8.871c0.59,5.492-3.383,10.422-8.871,11.012
				c-61.156,6.574-138.285,43.152-212.871,78.523c-83.789,39.734-162.934,77.266-224.387,77.266
				c-63.996,0-96.746-78.93-128.418-155.258c-29.152-70.266-59.301-142.922-109.941-142.922c-52.434,0-78.816,33.844-106.746,69.676
				c-29.656,38.043-60.32,77.383-122.52,77.383c-63.723,0-94.223-66.238-123.715-130.297
				c-28.098-61.023-54.637-118.66-105.547-118.66c-43.012,0-64.52,50.941-87.289,104.871
				c-27.078,64.144-57.227,135.523-130.324,135.531c-13.418,0-28.27-2.402-44.832-7.699c-43.387-13.887-58.813,26.414-80.359,93.289
				C2179.642,1134.453,2157.63,1202.762,2093.705,1202.762z"/>
		</g>
		<g>
			
				<linearGradient id="SVGID_00000006669748579008540120000006924000214817518269_" gradientUnits="userSpaceOnUse" x1="315.0551" y1="925.4531" x2="3684.9429" y2="925.4531">
				<stop  offset="0" style="stop-color:#1C51BC"/>
				<stop  offset="0.1329" style="stop-color:#1D54BD"/>
				<stop  offset="0.2128" style="stop-color:#1F5CC1"/>
				<stop  offset="0.2787" style="stop-color:#226AC7"/>
				<stop  offset="0.337" style="stop-color:#277FD0"/>
				<stop  offset="0.3903" style="stop-color:#2D99DB"/>
				<stop  offset="0.4399" style="stop-color:#34B9E9"/>
				<stop  offset="0.4858" style="stop-color:#3DDFF9"/>
				<stop  offset="0.5" style="stop-color:#40ECFF"/>
				<stop  offset="0.5162" style="stop-color:#48D8F9"/>
				<stop  offset="0.5558" style="stop-color:#59ADEB"/>
				<stop  offset="0.5985" style="stop-color:#6986DF"/>
				<stop  offset="0.6438" style="stop-color:#7566D5"/>
				<stop  offset="0.6925" style="stop-color:#804CCC"/>
				<stop  offset="0.7457" style="stop-color:#8837C6"/>
				<stop  offset="0.8058" style="stop-color:#8E29C1"/>
				<stop  offset="0.8788" style="stop-color:#9121BF"/>
				<stop  offset="1" style="stop-color:#921EBE"/>
			</linearGradient>
			<path style="fill:url(#SVGID_00000006669748579008540120000006924000214817518269_);" d="M2094.224,1212.445
				c-63.918,0-97.133-77.738-129.258-152.918c-29.57-69.207-60.148-140.773-110.863-140.773c-55.621,0-82.688,9.418-111.34,19.387
				c-28.961,10.074-58.906,20.496-117.91,20.496c-62.961,0-93.582-50.766-123.191-99.855
				c-27.977-46.379-54.398-90.188-106.066-90.188c-61.336,0-91.949-29.41-121.555-57.856c-27.98-26.883-54.41-52.277-107.699-52.277
				c-49.625,0-77.75,105.558-104.953,207.645c-30.492,114.422-59.289,222.5-124.285,222.5c-62.051,0-92.711-37.488-122.363-73.742
				c-27.926-34.144-54.309-66.398-106.875-66.398c-37.621,0-71.769,17.777-107.926,36.602
				c-70.172,36.52-149.703,77.926-279.711,6.23c-4.836-2.668-6.594-8.75-3.93-13.586c2.668-4.836,8.746-6.59,13.586-3.93
				c120.617,66.523,191.891,29.422,260.816-6.457c38.391-19.984,74.648-38.859,117.164-38.859
				c62.047,0,92.707,37.488,122.359,73.738c27.926,34.148,54.309,66.402,106.879,66.402c49.625,0,77.754-105.562,104.957-207.648
				c30.492-114.422,59.289-222.496,124.281-222.496c61.34,0,91.953,29.414,121.559,57.855c27.98,26.883,54.41,52.277,107.695,52.277
				c62.961,0,93.582,50.766,123.191,99.855c27.977,46.379,54.398,90.188,106.066,90.188c55.621,0,82.688-9.418,111.34-19.387
				c28.961-10.074,58.906-20.496,117.91-20.496c63.918,0,97.133,77.738,129.258,152.918
				c29.57,69.207,60.148,140.773,110.863,140.773c49.289,0,67.637-59.41,85.383-116.867c14.32-46.363,27.844-90.152,58.07-105.688
				c13.461-6.914,29.09-7.488,46.449-1.707c90.898,30.316,120.781-46.105,152.445-126.988
				c24.09-61.531,48.996-125.152,105.297-125.152c63.816,0,94.293,68.629,123.77,134.996
				c28.117,63.313,54.676,123.113,105.492,123.113c52.262,0,78.648-35.82,106.582-73.742
				c29.652-40.254,60.313-81.879,122.684-81.879c64.176,0,96.996,84.93,128.734,167.063
				c29.309,75.844,59.617,154.269,110.078,154.269c54.871,0,135.383-41.957,213.246-82.531
				c79.996-41.688,162.719-84.793,222.488-84.793c5.523,0,10,4.477,10,10c0,5.523-4.477,10-10,10
				c-54.871,0-135.383,41.957-213.246,82.531c-79.996,41.688-162.719,84.793-222.488,84.793c-64.176,0-96.996-84.93-128.734-167.063
				c-29.309-75.844-59.617-154.269-110.078-154.269c-52.262,0-78.648,35.82-106.582,73.742
				c-29.652,40.254-60.313,81.879-122.684,81.879c-63.816,0-94.297-68.629-123.773-134.996
				c-28.117-63.313-54.676-123.113-105.488-123.113c-42.652,0-64.035,54.617-86.672,112.441
				c-32.109,82.02-68.508,174.977-177.398,138.676c-12.23-4.078-22.359-3.906-30.98,0.519
				c-22.738,11.688-35.059,51.574-48.102,93.801C2179.755,1142.867,2158.267,1212.445,2094.224,1212.445z"/>
		</g>
	</g>
</g>
</svg>
